<?xml version="1.0" encoding="UTF-8"?>
<svg xmlns="http://www.w3.org/2000/svg" width="1180" height="700" viewBox="0 0 1180 700" role="img" aria-label="Fragmentize broadcast: PhysicalOperators to PlanFragments with ExchangeNodes and sinks">
  <defs>
    <marker id="fz-arr" viewBox="0 0 12 12" refX="11" refY="6" markerWidth="10" markerHeight="10" orient="auto">
      <path d="M 0 1 L 11 6 L 0 11 z" fill="#455a64"/>
    </marker>
  </defs>
  <rect width="1180" height="700" fill="#f7f9fb"/>

  <text x="590" y="28" text-anchor="middle" font-family="Segoe UI, Helvetica, Arial, sans-serif" font-size="16" font-weight="700" fill="#263238">Fragmentize: Broadcast join</text>

  <rect x="36" y="42" width="16" height="12" fill="#e3f2fd" stroke="#1565c0" rx="2"/>
  <text x="58" y="53" font-family="Consolas, monospace" font-size="10" fill="#37474f">PhysicalOperator</text>
  <rect x="190" y="42" width="16" height="12" fill="#ff9800" stroke="#e65100" rx="2"/>
  <text x="212" y="53" font-family="Consolas, monospace" font-size="10" fill="#37474f">PhysicalDistributionOperator</text>
  <rect x="420" y="42" width="16" height="12" fill="none" stroke="#2e7d32" stroke-dasharray="3 2" rx="2"/>
  <text x="442" y="53" font-family="Consolas, monospace" font-size="10" fill="#37474f">PlanFragment</text>
  <rect x="550" y="42" width="16" height="12" fill="#e8f5e9" stroke="#2e7d32" rx="2"/>
  <text x="572" y="53" font-family="Consolas, monospace" font-size="10" fill="#37474f">PlanNode</text>
  <rect x="650" y="42" width="16" height="12" fill="#fff3e0" stroke="#ef6c00" rx="2"/>
  <text x="672" y="53" font-family="Consolas, monospace" font-size="10" fill="#37474f">ExchangeNode</text>
  <rect x="780" y="42" width="16" height="12" fill="#f3e5f5" stroke="#7b1fa2" rx="2"/>
  <text x="802" y="53" font-family="Consolas, monospace" font-size="10" fill="#37474f">DataSink</text>

  <!-- left outbox -->
  <rect x="24" y="68" width="500" height="608" fill="#ffffff" stroke="#90caf9" stroke-width="1.5" rx="6"/>
  <text x="274" y="92" text-anchor="middle" font-family="Segoe UI, Helvetica, Arial, sans-serif" font-size="13" font-weight="700" fill="#0d47a1">OptExpression</text>

  <rect x="164" y="110" width="220" height="34" fill="#e3f2fd" stroke="#1565c0" rx="3"/>
  <text x="274" y="132" text-anchor="middle" font-family="Consolas, monospace" font-size="12" fill="#1565c0">PhysicalProject</text>
  <line x1="274" y1="144" x2="274" y2="162" stroke="#37474f" stroke-width="1.3"/>

  <rect x="164" y="162" width="220" height="34" fill="#e3f2fd" stroke="#1565c0" rx="3"/>
  <text x="274" y="184" text-anchor="middle" font-family="Consolas, monospace" font-size="12" fill="#1565c0">PhysicalHashJoin</text>
  <path d="M 274 196 L 274 214 L 144 214 L 144 232" fill="none" stroke="#37474f" stroke-width="1.3"/>
  <path d="M 274 214 L 384 214 L 384 232" fill="none" stroke="#37474f" stroke-width="1.3"/>

  <rect x="44" y="232" width="200" height="34" fill="#e3f2fd" stroke="#1565c0" rx="3"/>
  <text x="144" y="254" text-anchor="middle" font-family="Consolas, monospace" font-size="12" fill="#1565c0">PhysicalHashJoin</text>
  <path d="M 144 266 L 144 284 L 84 284 L 84 302" fill="none" stroke="#37474f" stroke-width="1.3"/>
  <path d="M 144 284 L 214 284 L 214 302" fill="none" stroke="#37474f" stroke-width="1.3"/>

  <rect x="40" y="302" width="88" height="44" fill="#e3f2fd" stroke="#1565c0" rx="3"/>
  <text x="84" y="322" text-anchor="middle" font-family="Consolas, monospace" font-size="10" fill="#1565c0">Physical</text>
  <text x="84" y="336" text-anchor="middle" font-family="Consolas, monospace" font-size="10" fill="#1565c0">OlapScan</text>

  <rect x="152" y="302" width="124" height="44" fill="#ff9800" stroke="#e65100" rx="3"/>
  <text x="214" y="322" text-anchor="middle" font-family="Consolas, monospace" font-size="10" fill="#ffffff">PhysicalDistribution</text>
  <text x="214" y="336" text-anchor="middle" font-family="Consolas, monospace" font-size="10" fill="#ffffff">BROADCAST</text>
  <line x1="214" y1="346" x2="214" y2="366" stroke="#37474f" stroke-width="1.3"/>

  <rect x="152" y="366" width="124" height="44" fill="#e3f2fd" stroke="#1565c0" rx="3"/>
  <text x="214" y="386" text-anchor="middle" font-family="Consolas, monospace" font-size="10" fill="#1565c0">Physical</text>
  <text x="214" y="400" text-anchor="middle" font-family="Consolas, monospace" font-size="10" fill="#1565c0">OlapScan</text>

  <rect x="322" y="232" width="124" height="44" fill="#ff9800" stroke="#e65100" rx="3"/>
  <text x="384" y="252" text-anchor="middle" font-family="Consolas, monospace" font-size="10" fill="#ffffff">PhysicalDistribution</text>
  <text x="384" y="266" text-anchor="middle" font-family="Consolas, monospace" font-size="10" fill="#ffffff">BROADCAST</text>
  <line x1="384" y1="276" x2="384" y2="296" stroke="#37474f" stroke-width="1.3"/>

  <rect x="322" y="296" width="124" height="44" fill="#e3f2fd" stroke="#1565c0" rx="3"/>
  <text x="384" y="316" text-anchor="middle" font-family="Consolas, monospace" font-size="10" fill="#1565c0">Physical</text>
  <text x="384" y="330" text-anchor="middle" font-family="Consolas, monospace" font-size="10" fill="#1565c0">OlapScan</text>

  <line x1="540" y1="320" x2="620" y2="320" stroke="#455a64" stroke-width="3.5" marker-end="url(#fz-arr)"/>
  <text x="580" y="306" text-anchor="middle" font-family="Segoe UI, Helvetica, Arial, sans-serif" font-size="11" font-weight="700" fill="#455a64">fragmentize</text>

  <!-- right outbox -->
  <rect x="640" y="68" width="516" height="608" fill="#ffffff" stroke="#81c784" stroke-width="1.5" rx="6"/>
  <text x="898" y="92" text-anchor="middle" font-family="Segoe UI, Helvetica, Arial, sans-serif" font-size="13" font-weight="700" fill="#1b5e20">ExecPlan.fragments</text>

  <!-- PlanFragment 0 -->
  <rect x="760" y="108" width="276" height="88" fill="none" stroke="#2e7d32" stroke-width="1.5" stroke-dasharray="5 3" rx="4"/>
  <text x="772" y="126" font-family="Consolas, monospace" font-size="11" font-weight="700" fill="#c62828">PlanFragment 0</text>
  <rect x="788" y="136" width="220" height="24" fill="#f3e5f5" stroke="#7b1fa2" rx="3"/>
  <text x="898" y="153" text-anchor="middle" font-family="Consolas, monospace" font-size="11" fill="#7b1fa2">ResultSink</text>
  <rect x="788" y="164" width="220" height="24" fill="#e8f5e9" stroke="#2e7d32" rx="3"/>
  <text x="898" y="181" text-anchor="middle" font-family="Consolas, monospace" font-size="11" fill="#2e7d32">ProjectNode</text>
  <line x1="898" y1="196" x2="898" y2="214" stroke="#37474f" stroke-width="1.3"/>

  <!-- PlanFragment 1 -->
  <rect x="656" y="214" width="484" height="268" fill="none" stroke="#2e7d32" stroke-width="1.5" stroke-dasharray="5 3" rx="4"/>
  <text x="668" y="232" font-family="Consolas, monospace" font-size="11" font-weight="700" fill="#c62828">PlanFragment 1</text>
  <rect x="788" y="242" width="220" height="24" fill="#f3e5f5" stroke="#7b1fa2" rx="3"/>
  <text x="898" y="259" text-anchor="middle" font-family="Consolas, monospace" font-size="11" fill="#7b1fa2">DataStreamSink</text>

  <rect x="806" y="274" width="184" height="28" fill="#e8f5e9" stroke="#2e7d32" rx="3"/>
  <text x="898" y="293" text-anchor="middle" font-family="Consolas, monospace" font-size="12" fill="#2e7d32">HashJoinNode</text>
  <path d="M 898 302 L 898 318 L 770 318 L 770 334" fill="none" stroke="#37474f" stroke-width="1.3"/>
  <path d="M 898 318 L 1010 318 L 1010 334" fill="none" stroke="#37474f" stroke-width="1.3"/>

  <rect x="680" y="334" width="180" height="28" fill="#e8f5e9" stroke="#2e7d32" rx="3"/>
  <text x="770" y="353" text-anchor="middle" font-family="Consolas, monospace" font-size="12" fill="#2e7d32">HashJoinNode</text>
  <path d="M 770 362 L 770 378 L 710 378 L 710 394" fill="none" stroke="#37474f" stroke-width="1.3"/>
  <path d="M 770 378 L 830 378 L 830 394" fill="none" stroke="#37474f" stroke-width="1.3"/>

  <rect x="670" y="394" width="80" height="40" fill="#e8f5e9" stroke="#2e7d32" rx="3"/>
  <text x="710" y="412" text-anchor="middle" font-family="Consolas, monospace" font-size="10" fill="#2e7d32">OlapScan</text>
  <text x="710" y="426" text-anchor="middle" font-family="Consolas, monospace" font-size="10" fill="#2e7d32">Node</text>

  <rect x="790" y="394" width="80" height="40" fill="#fff3e0" stroke="#ef6c00" rx="3"/>
  <text x="830" y="412" text-anchor="middle" font-family="Consolas, monospace" font-size="10" fill="#e65100">Exchange</text>
  <text x="830" y="426" text-anchor="middle" font-family="Consolas, monospace" font-size="10" fill="#e65100">Node</text>

  <rect x="970" y="334" width="80" height="40" fill="#fff3e0" stroke="#ef6c00" rx="3"/>
  <text x="1010" y="352" text-anchor="middle" font-family="Consolas, monospace" font-size="10" fill="#e65100">Exchange</text>
  <text x="1010" y="366" text-anchor="middle" font-family="Consolas, monospace" font-size="10" fill="#e65100">Node</text>

  <line x1="830" y1="434" x2="830" y2="502" stroke="#37474f" stroke-width="1.3"/>
  <line x1="1010" y1="374" x2="1010" y2="502" stroke="#37474f" stroke-width="1.3"/>

  <!-- PlanFragment 2 -->
  <rect x="750" y="502" width="160" height="96" fill="none" stroke="#2e7d32" stroke-width="1.5" stroke-dasharray="5 3" rx="4"/>
  <text x="762" y="520" font-family="Consolas, monospace" font-size="11" font-weight="700" fill="#c62828">PlanFragment 2</text>
  <rect x="766" y="528" width="128" height="22" fill="#f3e5f5" stroke="#7b1fa2" rx="3"/>
  <text x="830" y="544" text-anchor="middle" font-family="Consolas, monospace" font-size="10" fill="#7b1fa2">DataStreamSink</text>
  <rect x="770" y="556" width="120" height="32" fill="#e8f5e9" stroke="#2e7d32" rx="3"/>
  <text x="830" y="577" text-anchor="middle" font-family="Consolas, monospace" font-size="11" fill="#2e7d32">OlapScanNode</text>

  <!-- PlanFragment 3 -->
  <rect x="930" y="502" width="160" height="96" fill="none" stroke="#2e7d32" stroke-width="1.5" stroke-dasharray="5 3" rx="4"/>
  <text x="942" y="520" font-family="Consolas, monospace" font-size="11" font-weight="700" fill="#c62828">PlanFragment 3</text>
  <rect x="946" y="528" width="128" height="22" fill="#f3e5f5" stroke="#7b1fa2" rx="3"/>
  <text x="1010" y="544" text-anchor="middle" font-family="Consolas, monospace" font-size="10" fill="#7b1fa2">DataStreamSink</text>
  <rect x="950" y="556" width="120" height="32" fill="#e8f5e9" stroke="#2e7d32" rx="3"/>
  <text x="1010" y="577" text-anchor="middle" font-family="Consolas, monospace" font-size="11" fill="#2e7d32">OlapScanNode</text>
</svg>
