<?xml version="1.0" encoding="UTF-8"?>
<svg xmlns="http://www.w3.org/2000/svg" width="900" height="720" viewBox="0 0 900 720" role="img" aria-label="Elliptic curve E: y^2 = x^3 + 13">
  <rect width="900" height="720" fill="#ffffff"/>
  <rect x="12" y="12" width="876" height="696" fill="none" stroke="#333333" stroke-width="2"/>
  <line x1="55.0" y1="360.0" x2="845.0" y2="360.0" stroke="#222222" stroke-width="1.8"/>
  <line x1="450.0" y1="55.0" x2="450.0" y2="665.0" stroke="#222222" stroke-width="1.8"/>
  <polygon points="845.0,360.0 834.0,355.0 834.0,365.0" fill="#222"/>
  <polygon points="450.0,55.0 445.0,66.0 455.0,66.0" fill="#222"/>
  <line x1="73.8" y1="354.0" x2="73.8" y2="366.0" stroke="#222" stroke-width="1"/>
  <text x="73.8" y="378.0" text-anchor="middle" font-family="DejaVu Serif, Times New Roman, serif" font-size="13" fill="#222">-4</text>
  <line x1="167.9" y1="354.0" x2="167.9" y2="366.0" stroke="#222" stroke-width="1"/>
  <text x="167.9" y="378.0" text-anchor="middle" font-family="DejaVu Serif, Times New Roman, serif" font-size="13" fill="#222">-3</text>
  <line x1="261.9" y1="354.0" x2="261.9" y2="366.0" stroke="#222" stroke-width="1"/>
  <text x="261.9" y="378.0" text-anchor="middle" font-family="DejaVu Serif, Times New Roman, serif" font-size="13" fill="#222">-2</text>
  <line x1="356.0" y1="354.0" x2="356.0" y2="366.0" stroke="#222" stroke-width="1"/>
  <text x="356.0" y="378.0" text-anchor="middle" font-family="DejaVu Serif, Times New Roman, serif" font-size="13" fill="#222">-1</text>
  <line x1="544.0" y1="354.0" x2="544.0" y2="366.0" stroke="#222" stroke-width="1"/>
  <text x="544.0" y="378.0" text-anchor="middle" font-family="DejaVu Serif, Times New Roman, serif" font-size="13" fill="#222">1</text>
  <line x1="638.1" y1="354.0" x2="638.1" y2="366.0" stroke="#222" stroke-width="1"/>
  <text x="638.1" y="378.0" text-anchor="middle" font-family="DejaVu Serif, Times New Roman, serif" font-size="13" fill="#222">2</text>
  <line x1="732.1" y1="354.0" x2="732.1" y2="366.0" stroke="#222" stroke-width="1"/>
  <text x="732.1" y="378.0" text-anchor="middle" font-family="DejaVu Serif, Times New Roman, serif" font-size="13" fill="#222">3</text>
  <line x1="826.2" y1="354.0" x2="826.2" y2="366.0" stroke="#222" stroke-width="1"/>
  <text x="826.2" y="378.0" text-anchor="middle" font-family="DejaVu Serif, Times New Roman, serif" font-size="13" fill="#222">4</text>
  <line x1="444.0" y1="637.3" x2="456.0" y2="637.3" stroke="#222" stroke-width="1"/>
  <text x="440.0" y="641.3" text-anchor="end" font-family="DejaVu Serif, Times New Roman, serif" font-size="13" fill="#222">-6</text>
  <line x1="444.0" y1="591.1" x2="456.0" y2="591.1" stroke="#222" stroke-width="1"/>
  <text x="440.0" y="595.1" text-anchor="end" font-family="DejaVu Serif, Times New Roman, serif" font-size="13" fill="#222">-5</text>
  <line x1="444.0" y1="544.8" x2="456.0" y2="544.8" stroke="#222" stroke-width="1"/>
  <text x="440.0" y="548.8" text-anchor="end" font-family="DejaVu Serif, Times New Roman, serif" font-size="13" fill="#222">-4</text>
  <line x1="444.0" y1="498.6" x2="456.0" y2="498.6" stroke="#222" stroke-width="1"/>
  <text x="440.0" y="502.6" text-anchor="end" font-family="DejaVu Serif, Times New Roman, serif" font-size="13" fill="#222">-3</text>
  <line x1="444.0" y1="452.4" x2="456.0" y2="452.4" stroke="#222" stroke-width="1"/>
  <text x="440.0" y="456.4" text-anchor="end" font-family="DejaVu Serif, Times New Roman, serif" font-size="13" fill="#222">-2</text>
  <line x1="444.0" y1="406.2" x2="456.0" y2="406.2" stroke="#222" stroke-width="1"/>
  <text x="440.0" y="410.2" text-anchor="end" font-family="DejaVu Serif, Times New Roman, serif" font-size="13" fill="#222">-1</text>
  <line x1="444.0" y1="313.8" x2="456.0" y2="313.8" stroke="#222" stroke-width="1"/>
  <text x="440.0" y="317.8" text-anchor="end" font-family="DejaVu Serif, Times New Roman, serif" font-size="13" fill="#222">1</text>
  <line x1="444.0" y1="267.6" x2="456.0" y2="267.6" stroke="#222" stroke-width="1"/>
  <text x="440.0" y="271.6" text-anchor="end" font-family="DejaVu Serif, Times New Roman, serif" font-size="13" fill="#222">2</text>
  <line x1="444.0" y1="221.4" x2="456.0" y2="221.4" stroke="#222" stroke-width="1"/>
  <text x="440.0" y="225.4" text-anchor="end" font-family="DejaVu Serif, Times New Roman, serif" font-size="13" fill="#222">3</text>
  <line x1="444.0" y1="175.2" x2="456.0" y2="175.2" stroke="#222" stroke-width="1"/>
  <text x="440.0" y="179.2" text-anchor="end" font-family="DejaVu Serif, Times New Roman, serif" font-size="13" fill="#222">4</text>
  <line x1="444.0" y1="128.9" x2="456.0" y2="128.9" stroke="#222" stroke-width="1"/>
  <text x="440.0" y="132.9" text-anchor="end" font-family="DejaVu Serif, Times New Roman, serif" font-size="13" fill="#222">5</text>
  <line x1="444.0" y1="82.7" x2="456.0" y2="82.7" stroke="#222" stroke-width="1"/>
  <text x="440.0" y="86.7" text-anchor="end" font-family="DejaVu Serif, Times New Roman, serif" font-size="13" fill="#222">6</text>
  <text x="825.0" y="382.0" font-family="DejaVu Serif, Times New Roman, serif" font-size="16" font-style="italic" fill="#222">x</text>
  <text x="460.0" y="71.0" font-family="DejaVu Serif, Times New Roman, serif" font-size="16" font-style="italic" fill="#222">y</text>
  <path d="M228.86,359.81L229.38,346.11L229.89,340.38L230.40,336.00L230.92,332.32L231.43,329.08L231.94,326.17L232.46,323.51L232.97,321.03L233.48,318.72L234.00,316.53L234.51,314.47L235.02,312.50L235.54,310.62L236.05,308.81L236.56,307.08L237.08,305.41L237.59,303.79L238.10,302.23L238.62,300.72L239.13,299.25L239.65,297.82L240.16,296.43L240.67,295.08L241.19,293.76L241.70,292.48L242.21,291.22L242.73,289.99L243.24,288.79L243.75,287.62L244.27,286.47L244.78,285.34L245.29,284.24L245.81,283.16L246.32,282.09L246.83,281.05L247.35,280.02L247.86,279.02L248.37,278.03L248.89,277.06L249.40,276.10L249.91,275.16L250.43,274.23L250.94,273.32L251.45,272.43L251.97,271.54L252.48,270.67L252.99,269.82L253.51,268.97L254.02,268.14L254.54,267.32L255.05,266.51L255.56,265.71L256.08,264.92L256.59,264.15L257.10,263.38L257.62,262.62L258.13,261.88L258.64,261.14L259.16,260.41L259.67,259.69L260.18,258.98L260.70,258.28L261.21,257.59L261.72,256.91L262.24,256.23L262.75,255.56L263.26,254.90L263.78,254.25L264.29,253.61L264.80,252.97L265.32,252.34L265.83,251.72L266.34,251.10L266.86,250.49L267.37,249.89L267.88,249.29L268.40,248.70L268.91,248.12L269.43,247.54L269.94,246.97L270.45,246.41L270.97,245.85L271.48,245.30L271.99,244.75L272.51,244.21L273.02,243.68L273.53,243.15L274.05,242.62L274.56,242.10L275.07,241.59L275.59,241.08L276.10,240.58L276.61,240.08L277.13,239.59L277.64,239.10L278.15,238.62L278.67,238.14L279.18,237.66L279.69,237.19L280.21,236.73L280.72,236.27L281.23,235.81L281.75,235.36L282.26,234.92L282.77,234.47L283.29,234.03L283.80,233.60L284.32,233.17L284.83,232.74L285.34,232.32L285.86,231.91L286.37,231.49L286.88,231.08L287.40,230.68L287.91,230.27L288.42,229.87L288.94,229.48L289.45,229.09L289.96,228.70L290.48,228.32L290.99,227.94L291.50,227.56L292.02,227.19L292.53,226.82L293.04,226.45L293.56,226.09L294.07,225.73L294.58,225.37L295.10,225.02L295.61,224.67L296.12,224.32L296.64,223.98L297.15,223.64L297.66,223.30L298.18,222.97L298.69,222.64L299.21,222.31L299.72,221.98L300.23,221.66L300.75,221.34L301.26,221.02L301.77,220.71L302.29,220.40L302.80,220.09L303.31,219.79L303.83,219.49L304.34,219.19L304.85,218.89L305.37,218.60L305.88,218.31L306.39,218.02L306.91,217.73L307.42,217.45L307.93,217.17L308.45,216.89L308.96,216.61L309.47,216.34L309.99,216.07L310.50,215.80L311.01,215.54L311.53,215.27L312.04,215.01L312.55,214.75L313.07,214.50L313.58,214.24L314.09,213.99L314.61,213.74L315.12,213.50L315.64,213.25L316.15,213.01L316.66,212.77L317.18,212.53L317.69,212.30L318.20,212.06L318.72,211.83L319.23,211.60L319.74,211.38L320.26,211.15L320.77,210.93L321.28,210.71L321.80,210.49L322.31,210.28L322.82,210.06L323.34,209.85L323.85,209.64L324.36,209.43L324.88,209.22L325.39,209.02L325.90,208.82L326.42,208.62L326.93,208.42L327.44,208.22L327.96,208.03L328.47,207.83L328.98,207.64L329.50,207.45L330.01,207.27L330.53,207.08L331.04,206.90L331.55,206.72L332.07,206.54L332.58,206.36L333.09,206.18L333.61,206.01L334.12,205.83L334.63,205.66L335.15,205.49L335.66,205.32L336.17,205.16L336.69,204.99L337.20,204.83L337.71,204.67L338.23,204.51L338.74,204.35L339.25,204.19L339.77,204.04L340.28,203.89L340.79,203.73L341.31,203.58L341.82,203.44L342.33,203.29L342.85,203.14L343.36,203.00L343.87,202.86L344.39,202.72L344.90,202.58L345.42,202.44L345.93,202.30L346.44,202.17L346.96,202.03L347.47,201.90L347.98,201.77L348.50,201.64L349.01,201.51L349.52,201.39L350.04,201.26L350.55,201.14L351.06,201.02L351.58,200.89L352.09,200.77L352.60,200.66L353.12,200.54L353.63,200.42L354.14,200.31L354.66,200.20L355.17,200.08L355.68,199.97L356.20,199.86L356.71,199.76L357.22,199.65L357.74,199.54L358.25,199.44L358.76,199.34L359.28,199.24L359.79,199.13L360.31,199.03L360.82,198.94L361.33,198.84L361.85,198.74L362.36,198.65L362.87,198.56L363.39,198.46L363.90,198.37L364.41,198.28L364.93,198.19L365.44,198.10L365.95,198.02L366.47,197.93L366.98,197.85L367.49,197.76L368.01,197.68L368.52,197.60L369.03,197.52L369.55,197.44L370.06,197.36L370.57,197.29L371.09,197.21L371.60,197.13L372.11,197.06L372.63,196.99L373.14,196.92L373.65,196.84L374.17,196.77L374.68,196.70L375.20,196.64L375.71,196.57L376.22,196.50L376.74,196.44L377.25,196.37L377.76,196.31L378.28,196.25L378.79,196.19L379.30,196.12L379.82,196.06L380.33,196.01L380.84,195.95L381.36,195.89L381.87,195.83L382.38,195.78L382.90,195.72L383.41,195.67L383.92,195.62L384.44,195.57L384.95,195.51L385.46,195.46L385.98,195.41L386.49,195.37L387.00,195.32L387.52,195.27L388.03,195.22L388.54,195.18L389.06,195.13L389.57,195.09L390.09,195.05L390.60,195.00L391.11,194.96L391.63,194.92L392.14,194.88L392.65,194.84L393.17,194.80L393.68,194.76L394.19,194.72L394.71,194.69L395.22,194.65L395.73,194.62L396.25,194.58L396.76,194.55L397.27,194.51L397.79,194.48L398.30,194.45L398.81,194.42L399.33,194.39L399.84,194.35L400.35,194.33L400.87,194.30L401.38,194.27L401.89,194.24L402.41,194.21L402.92,194.19L403.43,194.16L403.95,194.13L404.46,194.11L404.98,194.08L405.49,194.06L406.00,194.04L406.52,194.01L407.03,193.99L407.54,193.97L408.06,193.95L408.57,193.93L409.08,193.91L409.60,193.89L410.11,193.87L410.62,193.85L411.14,193.83L411.65,193.81L412.16,193.80L412.68,193.78L413.19,193.76L413.70,193.75L414.22,193.73L414.73,193.72L415.24,193.70L415.76,193.69L416.27,193.68L416.78,193.66L417.30,193.65L417.81,193.64L418.32,193.62L418.84,193.61L419.35,193.60L419.87,193.59L420.38,193.58L420.89,193.57L421.41,193.56L421.92,193.55L422.43,193.54L422.95,193.53L423.46,193.52L423.97,193.52L424.49,193.51L425.00,193.50L425.51,193.49L426.03,193.49L426.54,193.48L427.05,193.47L427.57,193.47L428.08,193.46L428.59,193.46L429.11,193.45L429.62,193.45L430.13,193.44L430.65,193.44L431.16,193.43L431.67,193.43L432.19,193.42L432.70,193.42L433.21,193.42L433.73,193.41L434.24,193.41L434.76,193.41L435.27,193.40L435.78,193.40L436.30,193.40L436.81,193.40L437.32,193.40L437.84,193.39L438.35,193.39L438.86,193.39L439.38,193.39L439.89,193.39L440.40,193.39L440.92,193.39L441.43,193.38L441.94,193.38L442.46,193.38L442.97,193.38L443.48,193.38L444.00,193.38L444.51,193.38L445.02,193.38L445.54,193.38L446.05,193.38L446.56,193.38L447.08,193.38L447.59,193.38L448.10,193.38L448.62,193.38L449.13,193.38L449.65,193.38L450.16,193.38L450.67,193.38L451.19,193.38L451.70,193.38L452.21,193.38L452.73,193.38L453.24,193.38L453.75,193.38L454.27,193.38L454.78,193.38L455.29,193.38L455.81,193.38L456.32,193.38L456.83,193.38L457.35,193.38L457.86,193.38L458.37,193.38L458.89,193.37L459.40,193.37L459.91,193.37L460.43,193.37L460.94,193.37L461.45,193.37L461.97,193.37L462.48,193.36L462.99,193.36L463.51,193.36L464.02,193.36L464.54,193.36L465.05,193.35L465.56,193.35L466.08,193.35L466.59,193.34L467.10,193.34L467.62,193.34L468.13,193.33L468.64,193.33L469.16,193.33L469.67,193.32L470.18,193.32L470.70,193.31L471.21,193.31L471.72,193.30L472.24,193.30L472.75,193.29L473.26,193.28L473.78,193.28L474.29,193.27L474.80,193.26L475.32,193.25L475.83,193.25L476.34,193.24L476.86,193.23L477.37,193.22L477.88,193.21L478.40,193.20L478.91,193.19L479.43,193.18L479.94,193.17L480.45,193.16L480.97,193.15L481.48,193.14L481.99,193.13L482.51,193.12L483.02,193.10L483.53,193.09L484.05,193.08L484.56,193.06L485.07,193.05L485.59,193.03L486.10,193.02L486.61,193.00L487.13,192.99L487.64,192.97L488.15,192.95L488.67,192.94L489.18,192.92L489.69,192.90L490.21,192.88L490.72,192.86L491.23,192.84L491.75,192.82L492.26,192.80L492.77,192.78L493.29,192.76L493.80,192.73L494.32,192.71L494.83,192.69L495.34,192.66L495.86,192.64L496.37,192.61L496.88,192.59L497.40,192.56L497.91,192.53L498.42,192.51L498.94,192.48L499.45,192.45L499.96,192.42L500.48,192.39L500.99,192.36L501.50,192.33L502.02,192.30L502.53,192.27L503.04,192.23L503.56,192.20L504.07,192.17L504.58,192.13L505.10,192.10L505.61,192.06L506.12,192.02L506.64,191.99L507.15,191.95L507.66,191.91L508.18,191.87L508.69,191.83L509.21,191.79L509.72,191.75L510.23,191.70L510.75,191.66L511.26,191.62L511.77,191.57L512.29,191.53L512.80,191.48L513.31,191.44L513.83,191.39L514.34,191.34L514.85,191.29L515.37,191.24L515.88,191.19L516.39,191.14L516.91,191.09L517.42,191.04L517.93,190.98L518.45,190.93L518.96,190.87L519.47,190.82L519.99,190.76L520.50,190.70L521.01,190.64L521.53,190.58L522.04,190.52L522.55,190.46L523.07,190.40L523.58,190.34L524.10,190.27L524.61,190.21L525.12,190.15L525.64,190.08L526.15,190.01L526.66,189.94L527.18,189.88L527.69,189.81L528.20,189.74L528.72,189.66L529.23,189.59L529.74,189.52L530.26,189.44L530.77,189.37L531.28,189.29L531.80,189.22L532.31,189.14L532.82,189.06L533.34,188.98L533.85,188.90L534.36,188.82L534.88,188.73L535.39,188.65L535.90,188.57L536.42,188.48L536.93,188.39L537.44,188.31L537.96,188.22L538.47,188.13L538.99,188.04L539.50,187.95L540.01,187.85L540.53,187.76L541.04,187.66L541.55,187.57L542.07,187.47L542.58,187.38L543.09,187.28L543.61,187.18L544.12,187.08L544.63,186.97L545.15,186.87L545.66,186.77L546.17,186.66L546.69,186.56L547.20,186.45L547.71,186.34L548.23,186.23L548.74,186.12L549.25,186.01L549.77,185.90L550.28,185.78L550.79,185.67L551.31,185.55L551.82,185.44L552.33,185.32L552.85,185.20L553.36,185.08L553.88,184.96L554.39,184.84L554.90,184.71L555.42,184.59L555.93,184.46L556.44,184.33L556.96,184.21L557.47,184.08L557.98,183.95L558.50,183.82L559.01,183.68L559.52,183.55L560.04,183.41L560.55,183.28L561.06,183.14L561.58,183.00L562.09,182.86L562.60,182.72L563.12,182.58L563.63,182.44L564.14,182.29L564.66,182.15L565.17,182.00L565.68,181.85L566.20,181.70L566.71,181.55L567.22,181.40L567.74,181.25L568.25,181.09L568.77,180.94L569.28,180.78L569.79,180.62L570.31,180.47L570.82,180.31L571.33,180.14L571.85,179.98L572.36,179.82L572.87,179.65L573.39,179.49L573.90,179.32L574.41,179.15L574.93,178.98L575.44,178.81L575.95,178.64L576.47,178.46L576.98,178.29L577.49,178.11L578.01,177.94L578.52,177.76L579.03,177.58L579.55,177.40L580.06,177.21L580.57,177.03L581.09,176.85L581.60,176.66L582.11,176.47L582.63,176.28L583.14,176.09L583.66,175.90L584.17,175.71L584.68,175.52L585.20,175.32L585.71,175.13L586.22,174.93L586.74,174.73L587.25,174.53L587.76,174.33L588.28,174.12L588.79,173.92L589.30,173.71L589.82,173.51L590.33,173.30L590.84,173.09L591.36,172.88L591.87,172.67L592.38,172.46L592.90,172.24L593.41,172.03L593.92,171.81L594.44,171.59L594.95,171.37L595.46,171.15L595.98,170.93L596.49,170.70L597.00,170.48L597.52,170.25L598.03,170.03L598.55,169.80L599.06,169.57L599.57,169.34L600.09,169.10L600.60,168.87L601.11,168.63L601.63,168.40L602.14,168.16L602.65,167.92L603.17,167.68L603.68,167.44L604.19,167.19L604.71,166.95L605.22,166.70L605.73,166.46L606.25,166.21L606.76,165.96L607.27,165.71L607.79,165.46L608.30,165.20L608.81,164.95L609.33,164.69L609.84,164.43L610.35,164.17L610.87,163.91L611.38,163.65L611.89,163.39L612.41,163.13L612.92,162.86L613.44,162.59L613.95,162.32L614.46,162.05L614.98,161.78L615.49,161.51L616.00,161.24L616.52,160.96L617.03,160.69L617.54,160.41L618.06,160.13L618.57,159.85L619.08,159.57L619.60,159.29L620.11,159.00L620.62,158.72L621.14,158.43L621.65,158.14L622.16,157.85L622.68,157.56L623.19,157.27L623.70,156.98L624.22,156.68L624.73,156.39L625.24,156.09L625.76,155.79L626.27,155.49L626.78,155.19L627.30,154.89L627.81,154.59L628.33,154.28L628.84,153.97L629.35,153.67L629.87,153.36L630.38,153.05L630.89,152.74L631.41,152.42L631.92,152.11L632.43,151.79L632.95,151.48L633.46,151.16L633.97,150.84L634.49,150.52L635.00,150.20L635.51,149.87L636.03,149.55L636.54,149.22L637.05,148.90L637.57,148.57L638.08,148.24L638.59,147.91L639.11,147.58L639.62,147.24L640.13,146.91L640.65,146.57L641.16,146.23L641.67,145.90L642.19,145.56L642.70,145.21L643.22,144.87L643.73,144.53L644.24,144.18L644.76,143.84L645.27,143.49L645.78,143.14L646.30,142.79L646.81,142.44L647.32,142.09L647.84,141.73L648.35,141.38L648.86,141.02L649.38,140.66L649.89,140.30L650.40,139.94L650.92,139.58L651.43,139.22L651.94,138.86L652.46,138.49L652.97,138.12L653.48,137.76L654.00,137.39L654.51,137.02L655.02,136.65L655.54,136.27L656.05,135.90L656.56,135.52L657.08,135.15L657.59,134.77L658.11,134.39L658.62,134.01L659.13,133.63L659.65,133.25L660.16,132.86L660.67,132.48L661.19,132.09L661.70,131.70L662.21,131.31L662.73,130.92L663.24,130.53L663.75,130.14L664.27,129.75L664.78,129.35L665.29,128.96L665.81,128.56L666.32,128.16L666.83,127.76L667.35,127.36L667.86,126.96L668.37,126.55L668.89,126.15L669.40,125.74L669.91,125.34L670.43,124.93L670.94,124.52L671.45,124.11L671.97,123.70L672.48,123.29L672.99,122.87L673.51,122.46L674.02,122.04L674.54,121.62L675.05,121.20L675.56,120.78L676.08,120.36L676.59,119.94L677.10,119.52L677.62,119.09L678.13,118.67L678.64,118.24L679.16,117.81L679.67,117.38L680.18,116.95L680.70,116.52L681.21,116.09L681.72,115.65L682.24,115.22L682.75,114.78L683.26,114.34L683.78,113.91L684.29,113.47L684.80,113.03L685.32,112.58L685.83,112.14L686.34,111.70L686.86,111.25L687.37,110.80L687.88,110.36L688.40,109.91L688.91,109.46L689.43,109.01L689.94,108.55L690.45,108.10L690.97,107.65L691.48,107.19L691.99,106.73L692.51,106.28L693.02,105.82L693.53,105.36L694.05,104.90L694.56,104.44L695.07,103.97L695.59,103.51L696.10,103.04L696.61,102.58L697.13,102.11L697.64,101.64L698.15,101.17L698.67,100.70L699.18,100.23L699.69,99.75L700.21,99.28L700.72,98.80L701.23,98.33L701.75,97.85L702.26,97.37L702.77,96.89L703.29,96.41L703.80,95.93L704.32,95.45L704.83,94.96L705.34,94.48L705.86,93.99L706.37,93.50L706.88,93.02L707.40,92.53L707.91,92.04L708.42,91.54L708.94,91.05L709.45,90.56L709.96,90.06L710.48,89.57L710.99,89.07L711.50,88.57L712.02,88.08L712.53,87.58L713.04,87.08L713.56,86.57L714.07,86.07L714.58,85.57L715.10,85.06L715.61,84.56L716.12,84.05L716.64,83.54L717.15,83.03L717.66,82.52L718.18,82.01L718.69,81.50L719.21,80.99L719.72,80.47L720.23,79.96L720.75,79.44L721.26,78.92L721.77,78.41L722.29,77.89L722.80,77.37L723.31,76.85L723.83,76.32L724.34,75.80L724.85,75.28L725.37,74.75L725.88,74.23L726.39,73.70L726.91,73.17L727.42,72.64L727.93,72.11L728.45,71.58L728.96,71.05L729.47,70.51L729.99,69.98L730.50,69.45L731.01,68.91L731.53,68.37L732.04,67.84L732.55,67.30L733.07,66.76L733.58,66.22L734.10,65.67L734.61,65.13L735.12,64.59L735.64,64.04L736.15,63.50L736.66,62.95L737.18,62.40L737.69,61.86L738.20,61.31L738.72,60.76L739.23,60.20L739.74,59.65L740.26,59.10L740.77,58.55L741.28,57.99L741.80,57.43L742.31,56.88L742.82,56.32L743.34,55.76L743.85,55.20" fill="none" stroke="#1e88e5" stroke-width="2.6" stroke-linejoin="round"/>
  <path d="M228.86,360.19L229.38,373.89L229.89,379.62L230.40,384.00L230.92,387.68L231.43,390.92L231.94,393.83L232.46,396.49L232.97,398.97L233.48,401.28L234.00,403.47L234.51,405.53L235.02,407.50L235.54,409.38L236.05,411.19L236.56,412.92L237.08,414.59L237.59,416.21L238.10,417.77L238.62,419.28L239.13,420.75L239.65,422.18L240.16,423.57L240.67,424.92L241.19,426.24L241.70,427.52L242.21,428.78L242.73,430.01L243.24,431.21L243.75,432.38L244.27,433.53L244.78,434.66L245.29,435.76L245.81,436.84L246.32,437.91L246.83,438.95L247.35,439.98L247.86,440.98L248.37,441.97L248.89,442.94L249.40,443.90L249.91,444.84L250.43,445.77L250.94,446.68L251.45,447.57L251.97,448.46L252.48,449.33L252.99,450.18L253.51,451.03L254.02,451.86L254.54,452.68L255.05,453.49L255.56,454.29L256.08,455.08L256.59,455.85L257.10,456.62L257.62,457.38L258.13,458.12L258.64,458.86L259.16,459.59L259.67,460.31L260.18,461.02L260.70,461.72L261.21,462.41L261.72,463.09L262.24,463.77L262.75,464.44L263.26,465.10L263.78,465.75L264.29,466.39L264.80,467.03L265.32,467.66L265.83,468.28L266.34,468.90L266.86,469.51L267.37,470.11L267.88,470.71L268.40,471.30L268.91,471.88L269.43,472.46L269.94,473.03L270.45,473.59L270.97,474.15L271.48,474.70L271.99,475.25L272.51,475.79L273.02,476.32L273.53,476.85L274.05,477.38L274.56,477.90L275.07,478.41L275.59,478.92L276.10,479.42L276.61,479.92L277.13,480.41L277.64,480.90L278.15,481.38L278.67,481.86L279.18,482.34L279.69,482.81L280.21,483.27L280.72,483.73L281.23,484.19L281.75,484.64L282.26,485.08L282.77,485.53L283.29,485.97L283.80,486.40L284.32,486.83L284.83,487.26L285.34,487.68L285.86,488.09L286.37,488.51L286.88,488.92L287.40,489.32L287.91,489.73L288.42,490.13L288.94,490.52L289.45,490.91L289.96,491.30L290.48,491.68L290.99,492.06L291.50,492.44L292.02,492.81L292.53,493.18L293.04,493.55L293.56,493.91L294.07,494.27L294.58,494.63L295.10,494.98L295.61,495.33L296.12,495.68L296.64,496.02L297.15,496.36L297.66,496.70L298.18,497.03L298.69,497.36L299.21,497.69L299.72,498.02L300.23,498.34L300.75,498.66L301.26,498.98L301.77,499.29L302.29,499.60L302.80,499.91L303.31,500.21L303.83,500.51L304.34,500.81L304.85,501.11L305.37,501.40L305.88,501.69L306.39,501.98L306.91,502.27L307.42,502.55L307.93,502.83L308.45,503.11L308.96,503.39L309.47,503.66L309.99,503.93L310.50,504.20L311.01,504.46L311.53,504.73L312.04,504.99L312.55,505.25L313.07,505.50L313.58,505.76L314.09,506.01L314.61,506.26L315.12,506.50L315.64,506.75L316.15,506.99L316.66,507.23L317.18,507.47L317.69,507.70L318.20,507.94L318.72,508.17L319.23,508.40L319.74,508.62L320.26,508.85L320.77,509.07L321.28,509.29L321.80,509.51L322.31,509.72L322.82,509.94L323.34,510.15L323.85,510.36L324.36,510.57L324.88,510.78L325.39,510.98L325.90,511.18L326.42,511.38L326.93,511.58L327.44,511.78L327.96,511.97L328.47,512.17L328.98,512.36L329.50,512.55L330.01,512.73L330.53,512.92L331.04,513.10L331.55,513.28L332.07,513.46L332.58,513.64L333.09,513.82L333.61,513.99L334.12,514.17L334.63,514.34L335.15,514.51L335.66,514.68L336.17,514.84L336.69,515.01L337.20,515.17L337.71,515.33L338.23,515.49L338.74,515.65L339.25,515.81L339.77,515.96L340.28,516.11L340.79,516.27L341.31,516.42L341.82,516.56L342.33,516.71L342.85,516.86L343.36,517.00L343.87,517.14L344.39,517.28L344.90,517.42L345.42,517.56L345.93,517.70L346.44,517.83L346.96,517.97L347.47,518.10L347.98,518.23L348.50,518.36L349.01,518.49L349.52,518.61L350.04,518.74L350.55,518.86L351.06,518.98L351.58,519.11L352.09,519.23L352.60,519.34L353.12,519.46L353.63,519.58L354.14,519.69L354.66,519.80L355.17,519.92L355.68,520.03L356.20,520.14L356.71,520.24L357.22,520.35L357.74,520.46L358.25,520.56L358.76,520.66L359.28,520.76L359.79,520.87L360.31,520.97L360.82,521.06L361.33,521.16L361.85,521.26L362.36,521.35L362.87,521.44L363.39,521.54L363.90,521.63L364.41,521.72L364.93,521.81L365.44,521.90L365.95,521.98L366.47,522.07L366.98,522.15L367.49,522.24L368.01,522.32L368.52,522.40L369.03,522.48L369.55,522.56L370.06,522.64L370.57,522.71L371.09,522.79L371.60,522.87L372.11,522.94L372.63,523.01L373.14,523.08L373.65,523.16L374.17,523.23L374.68,523.30L375.20,523.36L375.71,523.43L376.22,523.50L376.74,523.56L377.25,523.63L377.76,523.69L378.28,523.75L378.79,523.81L379.30,523.88L379.82,523.94L380.33,523.99L380.84,524.05L381.36,524.11L381.87,524.17L382.38,524.22L382.90,524.28L383.41,524.33L383.92,524.38L384.44,524.43L384.95,524.49L385.46,524.54L385.98,524.59L386.49,524.63L387.00,524.68L387.52,524.73L388.03,524.78L388.54,524.82L389.06,524.87L389.57,524.91L390.09,524.95L390.60,525.00L391.11,525.04L391.63,525.08L392.14,525.12L392.65,525.16L393.17,525.20L393.68,525.24L394.19,525.28L394.71,525.31L395.22,525.35L395.73,525.38L396.25,525.42L396.76,525.45L397.27,525.49L397.79,525.52L398.30,525.55L398.81,525.58L399.33,525.61L399.84,525.65L400.35,525.67L400.87,525.70L401.38,525.73L401.89,525.76L402.41,525.79L402.92,525.81L403.43,525.84L403.95,525.87L404.46,525.89L404.98,525.92L405.49,525.94L406.00,525.96L406.52,525.99L407.03,526.01L407.54,526.03L408.06,526.05L408.57,526.07L409.08,526.09L409.60,526.11L410.11,526.13L410.62,526.15L411.14,526.17L411.65,526.19L412.16,526.20L412.68,526.22L413.19,526.24L413.70,526.25L414.22,526.27L414.73,526.28L415.24,526.30L415.76,526.31L416.27,526.32L416.78,526.34L417.30,526.35L417.81,526.36L418.32,526.38L418.84,526.39L419.35,526.40L419.87,526.41L420.38,526.42L420.89,526.43L421.41,526.44L421.92,526.45L422.43,526.46L422.95,526.47L423.46,526.48L423.97,526.48L424.49,526.49L425.00,526.50L425.51,526.51L426.03,526.51L426.54,526.52L427.05,526.53L427.57,526.53L428.08,526.54L428.59,526.54L429.11,526.55L429.62,526.55L430.13,526.56L430.65,526.56L431.16,526.57L431.67,526.57L432.19,526.58L432.70,526.58L433.21,526.58L433.73,526.59L434.24,526.59L434.76,526.59L435.27,526.60L435.78,526.60L436.30,526.60L436.81,526.60L437.32,526.60L437.84,526.61L438.35,526.61L438.86,526.61L439.38,526.61L439.89,526.61L440.40,526.61L440.92,526.61L441.43,526.62L441.94,526.62L442.46,526.62L442.97,526.62L443.48,526.62L444.00,526.62L444.51,526.62L445.02,526.62L445.54,526.62L446.05,526.62L446.56,526.62L447.08,526.62L447.59,526.62L448.10,526.62L448.62,526.62L449.13,526.62L449.65,526.62L450.16,526.62L450.67,526.62L451.19,526.62L451.70,526.62L452.21,526.62L452.73,526.62L453.24,526.62L453.75,526.62L454.27,526.62L454.78,526.62L455.29,526.62L455.81,526.62L456.32,526.62L456.83,526.62L457.35,526.62L457.86,526.62L458.37,526.62L458.89,526.63L459.40,526.63L459.91,526.63L460.43,526.63L460.94,526.63L461.45,526.63L461.97,526.63L462.48,526.64L462.99,526.64L463.51,526.64L464.02,526.64L464.54,526.64L465.05,526.65L465.56,526.65L466.08,526.65L466.59,526.66L467.10,526.66L467.62,526.66L468.13,526.67L468.64,526.67L469.16,526.67L469.67,526.68L470.18,526.68L470.70,526.69L471.21,526.69L471.72,526.70L472.24,526.70L472.75,526.71L473.26,526.72L473.78,526.72L474.29,526.73L474.80,526.74L475.32,526.75L475.83,526.75L476.34,526.76L476.86,526.77L477.37,526.78L477.88,526.79L478.40,526.80L478.91,526.81L479.43,526.82L479.94,526.83L480.45,526.84L480.97,526.85L481.48,526.86L481.99,526.87L482.51,526.88L483.02,526.90L483.53,526.91L484.05,526.92L484.56,526.94L485.07,526.95L485.59,526.97L486.10,526.98L486.61,527.00L487.13,527.01L487.64,527.03L488.15,527.05L488.67,527.06L489.18,527.08L489.69,527.10L490.21,527.12L490.72,527.14L491.23,527.16L491.75,527.18L492.26,527.20L492.77,527.22L493.29,527.24L493.80,527.27L494.32,527.29L494.83,527.31L495.34,527.34L495.86,527.36L496.37,527.39L496.88,527.41L497.40,527.44L497.91,527.47L498.42,527.49L498.94,527.52L499.45,527.55L499.96,527.58L500.48,527.61L500.99,527.64L501.50,527.67L502.02,527.70L502.53,527.73L503.04,527.77L503.56,527.80L504.07,527.83L504.58,527.87L505.10,527.90L505.61,527.94L506.12,527.98L506.64,528.01L507.15,528.05L507.66,528.09L508.18,528.13L508.69,528.17L509.21,528.21L509.72,528.25L510.23,528.30L510.75,528.34L511.26,528.38L511.77,528.43L512.29,528.47L512.80,528.52L513.31,528.56L513.83,528.61L514.34,528.66L514.85,528.71L515.37,528.76L515.88,528.81L516.39,528.86L516.91,528.91L517.42,528.96L517.93,529.02L518.45,529.07L518.96,529.13L519.47,529.18L519.99,529.24L520.50,529.30L521.01,529.36L521.53,529.42L522.04,529.48L522.55,529.54L523.07,529.60L523.58,529.66L524.10,529.73L524.61,529.79L525.12,529.85L525.64,529.92L526.15,529.99L526.66,530.06L527.18,530.12L527.69,530.19L528.20,530.26L528.72,530.34L529.23,530.41L529.74,530.48L530.26,530.56L530.77,530.63L531.28,530.71L531.80,530.78L532.31,530.86L532.82,530.94L533.34,531.02L533.85,531.10L534.36,531.18L534.88,531.27L535.39,531.35L535.90,531.43L536.42,531.52L536.93,531.61L537.44,531.69L537.96,531.78L538.47,531.87L538.99,531.96L539.50,532.05L540.01,532.15L540.53,532.24L541.04,532.34L541.55,532.43L542.07,532.53L542.58,532.62L543.09,532.72L543.61,532.82L544.12,532.92L544.63,533.03L545.15,533.13L545.66,533.23L546.17,533.34L546.69,533.44L547.20,533.55L547.71,533.66L548.23,533.77L548.74,533.88L549.25,533.99L549.77,534.10L550.28,534.22L550.79,534.33L551.31,534.45L551.82,534.56L552.33,534.68L552.85,534.80L553.36,534.92L553.88,535.04L554.39,535.16L554.90,535.29L555.42,535.41L555.93,535.54L556.44,535.67L556.96,535.79L557.47,535.92L557.98,536.05L558.50,536.18L559.01,536.32L559.52,536.45L560.04,536.59L560.55,536.72L561.06,536.86L561.58,537.00L562.09,537.14L562.60,537.28L563.12,537.42L563.63,537.56L564.14,537.71L564.66,537.85L565.17,538.00L565.68,538.15L566.20,538.30L566.71,538.45L567.22,538.60L567.74,538.75L568.25,538.91L568.77,539.06L569.28,539.22L569.79,539.38L570.31,539.53L570.82,539.69L571.33,539.86L571.85,540.02L572.36,540.18L572.87,540.35L573.39,540.51L573.90,540.68L574.41,540.85L574.93,541.02L575.44,541.19L575.95,541.36L576.47,541.54L576.98,541.71L577.49,541.89L578.01,542.06L578.52,542.24L579.03,542.42L579.55,542.60L580.06,542.79L580.57,542.97L581.09,543.15L581.60,543.34L582.11,543.53L582.63,543.72L583.14,543.91L583.66,544.10L584.17,544.29L584.68,544.48L585.20,544.68L585.71,544.87L586.22,545.07L586.74,545.27L587.25,545.47L587.76,545.67L588.28,545.88L588.79,546.08L589.30,546.29L589.82,546.49L590.33,546.70L590.84,546.91L591.36,547.12L591.87,547.33L592.38,547.54L592.90,547.76L593.41,547.97L593.92,548.19L594.44,548.41L594.95,548.63L595.46,548.85L595.98,549.07L596.49,549.30L597.00,549.52L597.52,549.75L598.03,549.97L598.55,550.20L599.06,550.43L599.57,550.66L600.09,550.90L600.60,551.13L601.11,551.37L601.63,551.60L602.14,551.84L602.65,552.08L603.17,552.32L603.68,552.56L604.19,552.81L604.71,553.05L605.22,553.30L605.73,553.54L606.25,553.79L606.76,554.04L607.27,554.29L607.79,554.54L608.30,554.80L608.81,555.05L609.33,555.31L609.84,555.57L610.35,555.83L610.87,556.09L611.38,556.35L611.89,556.61L612.41,556.87L612.92,557.14L613.44,557.41L613.95,557.68L614.46,557.95L614.98,558.22L615.49,558.49L616.00,558.76L616.52,559.04L617.03,559.31L617.54,559.59L618.06,559.87L618.57,560.15L619.08,560.43L619.60,560.71L620.11,561.00L620.62,561.28L621.14,561.57L621.65,561.86L622.16,562.15L622.68,562.44L623.19,562.73L623.70,563.02L624.22,563.32L624.73,563.61L625.24,563.91L625.76,564.21L626.27,564.51L626.78,564.81L627.30,565.11L627.81,565.41L628.33,565.72L628.84,566.03L629.35,566.33L629.87,566.64L630.38,566.95L630.89,567.26L631.41,567.58L631.92,567.89L632.43,568.21L632.95,568.52L633.46,568.84L633.97,569.16L634.49,569.48L635.00,569.80L635.51,570.13L636.03,570.45L636.54,570.78L637.05,571.10L637.57,571.43L638.08,571.76L638.59,572.09L639.11,572.42L639.62,572.76L640.13,573.09L640.65,573.43L641.16,573.77L641.67,574.10L642.19,574.44L642.70,574.79L643.22,575.13L643.73,575.47L644.24,575.82L644.76,576.16L645.27,576.51L645.78,576.86L646.30,577.21L646.81,577.56L647.32,577.91L647.84,578.27L648.35,578.62L648.86,578.98L649.38,579.34L649.89,579.70L650.40,580.06L650.92,580.42L651.43,580.78L651.94,581.14L652.46,581.51L652.97,581.88L653.48,582.24L654.00,582.61L654.51,582.98L655.02,583.35L655.54,583.73L656.05,584.10L656.56,584.48L657.08,584.85L657.59,585.23L658.11,585.61L658.62,585.99L659.13,586.37L659.65,586.75L660.16,587.14L660.67,587.52L661.19,587.91L661.70,588.30L662.21,588.69L662.73,589.08L663.24,589.47L663.75,589.86L664.27,590.25L664.78,590.65L665.29,591.04L665.81,591.44L666.32,591.84L666.83,592.24L667.35,592.64L667.86,593.04L668.37,593.45L668.89,593.85L669.40,594.26L669.91,594.66L670.43,595.07L670.94,595.48L671.45,595.89L671.97,596.30L672.48,596.71L672.99,597.13L673.51,597.54L674.02,597.96L674.54,598.38L675.05,598.80L675.56,599.22L676.08,599.64L676.59,600.06L677.10,600.48L677.62,600.91L678.13,601.33L678.64,601.76L679.16,602.19L679.67,602.62L680.18,603.05L680.70,603.48L681.21,603.91L681.72,604.35L682.24,604.78L682.75,605.22L683.26,605.66L683.78,606.09L684.29,606.53L684.80,606.97L685.32,607.42L685.83,607.86L686.34,608.30L686.86,608.75L687.37,609.20L687.88,609.64L688.40,610.09L688.91,610.54L689.43,610.99L689.94,611.45L690.45,611.90L690.97,612.35L691.48,612.81L691.99,613.27L692.51,613.72L693.02,614.18L693.53,614.64L694.05,615.10L694.56,615.56L695.07,616.03L695.59,616.49L696.10,616.96L696.61,617.42L697.13,617.89L697.64,618.36L698.15,618.83L698.67,619.30L699.18,619.77L699.69,620.25L700.21,620.72L700.72,621.20L701.23,621.67L701.75,622.15L702.26,622.63L702.77,623.11L703.29,623.59L703.80,624.07L704.32,624.55L704.83,625.04L705.34,625.52L705.86,626.01L706.37,626.50L706.88,626.98L707.40,627.47L707.91,627.96L708.42,628.46L708.94,628.95L709.45,629.44L709.96,629.94L710.48,630.43L710.99,630.93L711.50,631.43L712.02,631.92L712.53,632.42L713.04,632.92L713.56,633.43L714.07,633.93L714.58,634.43L715.10,634.94L715.61,635.44L716.12,635.95L716.64,636.46L717.15,636.97L717.66,637.48L718.18,637.99L718.69,638.50L719.21,639.01L719.72,639.53L720.23,640.04L720.75,640.56L721.26,641.08L721.77,641.59L722.29,642.11L722.80,642.63L723.31,643.15L723.83,643.68L724.34,644.20L724.85,644.72L725.37,645.25L725.88,645.77L726.39,646.30L726.91,646.83L727.42,647.36L727.93,647.89L728.45,648.42L728.96,648.95L729.47,649.49L729.99,650.02L730.50,650.55L731.01,651.09L731.53,651.63L732.04,652.16L732.55,652.70L733.07,653.24L733.58,653.78L734.10,654.33L734.61,654.87L735.12,655.41L735.64,655.96L736.15,656.50L736.66,657.05L737.18,657.60L737.69,658.14L738.20,658.69L738.72,659.24L739.23,659.80L739.74,660.35L740.26,660.90L740.77,661.45L741.28,662.01L741.80,662.57L742.31,663.12L742.82,663.68L743.34,664.24L743.85,664.80" fill="none" stroke="#1e88e5" stroke-width="2.6" stroke-linejoin="round"/>
  <text x="548.8" y="112.8" font-family="DejaVu Serif, Times New Roman, serif" font-size="20" font-style="italic" fill="#1e88e5">E: y&#x00B2; = x&#x00B3; + 13</text>
  <text x="111.4" y="614.2" font-family="DejaVu Serif, Times New Roman, serif" font-size="14" fill="#546e7a">points (x, y) on E, plus O at infinity</text>
</svg>
