<?xml version="1.0" encoding="UTF-8"?>
<svg xmlns="http://www.w3.org/2000/svg" width="980" height="720" viewBox="0 0 980 720" role="img" aria-label="Scalar multiplication: 2G by tangent, 3G by adding G">
  <rect width="980" height="720" fill="#ffffff"/>
  <rect x="10" y="10" width="960" height="700" fill="none" stroke="#333" stroke-width="2"/>

  <line x1="48.0" y1="360.0" x2="552.0" y2="360.0" stroke="#222" stroke-width="1.6"/>
  <line x1="300.0" y1="48.0" x2="300.0" y2="672.0" stroke="#222" stroke-width="1.6"/>
  <polygon points="552.0,360.0 542.0,356.0 542.0,364.0" fill="#222"/>
  <polygon points="300.0,48.0 296.0,58.0 304.0,58.0" fill="#222"/>
  <line x1="60.0" y1="355.0" x2="60.0" y2="365.0" stroke="#222" stroke-width="1"/><text x="60.0" y="376.0" text-anchor="middle" font-family="DejaVu Serif, Times New Roman, serif" font-size="11" fill="#222">-4</text><line x1="120.0" y1="355.0" x2="120.0" y2="365.0" stroke="#222" stroke-width="1"/><text x="120.0" y="376.0" text-anchor="middle" font-family="DejaVu Serif, Times New Roman, serif" font-size="11" fill="#222">-3</text><line x1="180.0" y1="355.0" x2="180.0" y2="365.0" stroke="#222" stroke-width="1"/><text x="180.0" y="376.0" text-anchor="middle" font-family="DejaVu Serif, Times New Roman, serif" font-size="11" fill="#222">-2</text><line x1="240.0" y1="355.0" x2="240.0" y2="365.0" stroke="#222" stroke-width="1"/><text x="240.0" y="376.0" text-anchor="middle" font-family="DejaVu Serif, Times New Roman, serif" font-size="11" fill="#222">-1</text><line x1="360.0" y1="355.0" x2="360.0" y2="365.0" stroke="#222" stroke-width="1"/><text x="360.0" y="376.0" text-anchor="middle" font-family="DejaVu Serif, Times New Roman, serif" font-size="11" fill="#222">1</text><line x1="420.0" y1="355.0" x2="420.0" y2="365.0" stroke="#222" stroke-width="1"/><text x="420.0" y="376.0" text-anchor="middle" font-family="DejaVu Serif, Times New Roman, serif" font-size="11" fill="#222">2</text><line x1="480.0" y1="355.0" x2="480.0" y2="365.0" stroke="#222" stroke-width="1"/><text x="480.0" y="376.0" text-anchor="middle" font-family="DejaVu Serif, Times New Roman, serif" font-size="11" fill="#222">3</text><line x1="540.0" y1="355.0" x2="540.0" y2="365.0" stroke="#222" stroke-width="1"/><text x="540.0" y="376.0" text-anchor="middle" font-family="DejaVu Serif, Times New Roman, serif" font-size="11" fill="#222">4</text><line x1="295.0" y1="643.6" x2="305.0" y2="643.6" stroke="#222" stroke-width="1"/><text x="292.0" y="646.6" text-anchor="end" font-family="DejaVu Serif, Times New Roman, serif" font-size="11" fill="#222">-6</text><line x1="295.0" y1="596.4" x2="305.0" y2="596.4" stroke="#222" stroke-width="1"/><text x="292.0" y="599.4" text-anchor="end" font-family="DejaVu Serif, Times New Roman, serif" font-size="11" fill="#222">-5</text><line x1="295.0" y1="549.1" x2="305.0" y2="549.1" stroke="#222" stroke-width="1"/><text x="292.0" y="552.1" text-anchor="end" font-family="DejaVu Serif, Times New Roman, serif" font-size="11" fill="#222">-4</text><line x1="295.0" y1="501.8" x2="305.0" y2="501.8" stroke="#222" stroke-width="1"/><text x="292.0" y="504.8" text-anchor="end" font-family="DejaVu Serif, Times New Roman, serif" font-size="11" fill="#222">-3</text><line x1="295.0" y1="454.5" x2="305.0" y2="454.5" stroke="#222" stroke-width="1"/><text x="292.0" y="457.5" text-anchor="end" font-family="DejaVu Serif, Times New Roman, serif" font-size="11" fill="#222">-2</text><line x1="295.0" y1="407.3" x2="305.0" y2="407.3" stroke="#222" stroke-width="1"/><text x="292.0" y="410.3" text-anchor="end" font-family="DejaVu Serif, Times New Roman, serif" font-size="11" fill="#222">-1</text><line x1="295.0" y1="312.7" x2="305.0" y2="312.7" stroke="#222" stroke-width="1"/><text x="292.0" y="315.7" text-anchor="end" font-family="DejaVu Serif, Times New Roman, serif" font-size="11" fill="#222">1</text><line x1="295.0" y1="265.5" x2="305.0" y2="265.5" stroke="#222" stroke-width="1"/><text x="292.0" y="268.5" text-anchor="end" font-family="DejaVu Serif, Times New Roman, serif" font-size="11" fill="#222">2</text><line x1="295.0" y1="218.2" x2="305.0" y2="218.2" stroke="#222" stroke-width="1"/><text x="292.0" y="221.2" text-anchor="end" font-family="DejaVu Serif, Times New Roman, serif" font-size="11" fill="#222">3</text><line x1="295.0" y1="170.9" x2="305.0" y2="170.9" stroke="#222" stroke-width="1"/><text x="292.0" y="173.9" text-anchor="end" font-family="DejaVu Serif, Times New Roman, serif" font-size="11" fill="#222">4</text><line x1="295.0" y1="123.6" x2="305.0" y2="123.6" stroke="#222" stroke-width="1"/><text x="292.0" y="126.6" text-anchor="end" font-family="DejaVu Serif, Times New Roman, serif" font-size="11" fill="#222">5</text><line x1="295.0" y1="76.4" x2="305.0" y2="76.4" stroke="#222" stroke-width="1"/><text x="292.0" y="79.4" text-anchor="end" font-family="DejaVu Serif, Times New Roman, serif" font-size="11" fill="#222">6</text>
  <text x="538.0" y="378.0" font-family="DejaVu Serif, Times New Roman, serif" font-size="14" font-style="italic" fill="#222">x</text>
  <text x="308.0" y="60.0" font-family="DejaVu Serif, Times New Roman, serif" font-size="14" font-style="italic" fill="#222">y</text>

  <path d="M158.92,359.81L159.25,345.79L159.58,339.93L159.90,335.45L160.23,331.68L160.56,328.38L160.89,325.40L161.21,322.67L161.54,320.14L161.87,317.77L162.20,315.54L162.52,313.42L162.85,311.41L163.18,309.48L163.51,307.64L163.83,305.86L164.16,304.15L164.49,302.50L164.82,300.90L165.14,299.36L165.47,297.85L165.80,296.39L166.13,294.97L166.45,293.59L166.78,292.24L167.11,290.93L167.44,289.64L167.76,288.39L168.09,287.16L168.42,285.96L168.75,284.78L169.07,283.63L169.40,282.50L169.73,281.39L170.06,280.30L170.38,279.24L170.71,278.19L171.04,277.16L171.37,276.15L171.70,275.15L172.02,274.18L172.35,273.21L172.68,272.27L173.01,271.33L173.33,270.42L173.66,269.51L173.99,268.62L174.32,267.75L174.64,266.88L174.97,266.03L175.30,265.19L175.63,264.36L175.95,263.55L176.28,262.74L176.61,261.95L176.94,261.16L177.26,260.39L177.59,259.62L177.92,258.87L178.25,258.13L178.57,257.39L178.90,256.67L179.23,255.95L179.56,255.24L179.88,254.54L180.21,253.85L180.54,253.17L180.87,252.49L181.19,251.82L181.52,251.16L181.85,250.51L182.18,249.87L182.50,249.23L182.83,248.60L183.16,247.98L183.49,247.36L183.82,246.75L184.14,246.15L184.47,245.55L184.80,244.96L185.13,244.38L185.45,243.80L185.78,243.23L186.11,242.67L186.44,242.11L186.76,241.56L187.09,241.01L187.42,240.47L187.75,239.93L188.07,239.40L188.40,238.87L188.73,238.35L189.06,237.84L189.38,237.33L189.71,236.82L190.04,236.33L190.37,235.83L190.69,235.34L191.02,234.86L191.35,234.38L191.68,233.90L192.00,233.43L192.33,232.96L192.66,232.50L192.99,232.05L193.31,231.59L193.64,231.14L193.97,230.70L194.30,230.26L194.62,229.82L194.95,229.39L195.28,228.97L195.61,228.54L195.94,228.12L196.26,227.71L196.59,227.30L196.92,226.89L197.25,226.48L197.57,226.08L197.90,225.69L198.23,225.29L198.56,224.91L198.88,224.52L199.21,224.14L199.54,223.76L199.87,223.39L200.19,223.01L200.52,222.65L200.85,222.28L201.18,221.92L201.50,221.56L201.83,221.21L202.16,220.86L202.49,220.51L202.81,220.16L203.14,219.82L203.47,219.48L203.80,219.15L204.12,218.81L204.45,218.49L204.78,218.16L205.11,217.84L205.43,217.51L205.76,217.20L206.09,216.88L206.42,216.57L206.74,216.26L207.07,215.96L207.40,215.65L207.73,215.35L208.05,215.05L208.38,214.76L208.71,214.47L209.04,214.18L209.37,213.89L209.69,213.60L210.02,213.32L210.35,213.04L210.68,212.77L211.00,212.49L211.33,212.22L211.66,211.95L211.99,211.68L212.31,211.42L212.64,211.16L212.97,210.90L213.30,210.64L213.62,210.39L213.95,210.14L214.28,209.89L214.61,209.64L214.93,209.39L215.26,209.15L215.59,208.91L215.92,208.67L216.24,208.43L216.57,208.20L216.90,207.97L217.23,207.74L217.55,207.51L217.88,207.28L218.21,207.06L218.54,206.84L218.86,206.62L219.19,206.40L219.52,206.19L219.85,205.97L220.17,205.76L220.50,205.55L220.83,205.35L221.16,205.14L221.49,204.94L221.81,204.74L222.14,204.54L222.47,204.34L222.80,204.15L223.12,203.95L223.45,203.76L223.78,203.57L224.11,203.38L224.43,203.20L224.76,203.01L225.09,202.83L225.42,202.65L225.74,202.47L226.07,202.29L226.40,202.12L226.73,201.95L227.05,201.77L227.38,201.60L227.71,201.44L228.04,201.27L228.36,201.10L228.69,200.94L229.02,200.78L229.35,200.62L229.67,200.46L230.00,200.30L230.33,200.15L230.66,200.00L230.98,199.84L231.31,199.69L231.64,199.54L231.97,199.40L232.29,199.25L232.62,199.11L232.95,198.96L233.28,198.82L233.61,198.68L233.93,198.54L234.26,198.41L234.59,198.27L234.92,198.14L235.24,198.01L235.57,197.88L235.90,197.75L236.23,197.62L236.55,197.49L236.88,197.37L237.21,197.24L237.54,197.12L237.86,197.00L238.19,196.88L238.52,196.76L238.85,196.64L239.17,196.53L239.50,196.41L239.83,196.30L240.16,196.19L240.48,196.08L240.81,195.97L241.14,195.86L241.47,195.75L241.79,195.65L242.12,195.55L242.45,195.44L242.78,195.34L243.10,195.24L243.43,195.14L243.76,195.04L244.09,194.95L244.41,194.85L244.74,194.76L245.07,194.66L245.40,194.57L245.73,194.48L246.05,194.39L246.38,194.30L246.71,194.21L247.04,194.13L247.36,194.04L247.69,193.96L248.02,193.87L248.35,193.79L248.67,193.71L249.00,193.63L249.33,193.55L249.66,193.47L249.98,193.40L250.31,193.32L250.64,193.25L250.97,193.17L251.29,193.10L251.62,193.03L251.95,192.96L252.28,192.89L252.60,192.82L252.93,192.75L253.26,192.68L253.59,192.62L253.91,192.55L254.24,192.49L254.57,192.43L254.90,192.36L255.22,192.30L255.55,192.24L255.88,192.18L256.21,192.12L256.53,192.07L256.86,192.01L257.19,191.95L257.52,191.90L257.85,191.84L258.17,191.79L258.50,191.74L258.83,191.69L259.16,191.64L259.48,191.59L259.81,191.54L260.14,191.49L260.47,191.44L260.79,191.39L261.12,191.35L261.45,191.30L261.78,191.26L262.10,191.22L262.43,191.17L262.76,191.13L263.09,191.09L263.41,191.05L263.74,191.01L264.07,190.97L264.40,190.93L264.72,190.89L265.05,190.86L265.38,190.82L265.71,190.78L266.03,190.75L266.36,190.71L266.69,190.68L267.02,190.65L267.34,190.62L267.67,190.58L268.00,190.55L268.33,190.52L268.65,190.49L268.98,190.46L269.31,190.44L269.64,190.41L269.97,190.38L270.29,190.35L270.62,190.33L270.95,190.30L271.28,190.28L271.60,190.25L271.93,190.23L272.26,190.20L272.59,190.18L272.91,190.16L273.24,190.14L273.57,190.12L273.90,190.10L274.22,190.08L274.55,190.06L274.88,190.04L275.21,190.02L275.53,190.00L275.86,189.98L276.19,189.97L276.52,189.95L276.84,189.93L277.17,189.92L277.50,189.90L277.83,189.89L278.15,189.87L278.48,189.86L278.81,189.84L279.14,189.83L279.46,189.82L279.79,189.81L280.12,189.79L280.45,189.78L280.77,189.77L281.10,189.76L281.43,189.75L281.76,189.74L282.09,189.73L282.41,189.72L282.74,189.71L283.07,189.70L283.40,189.69L283.72,189.69L284.05,189.68L284.38,189.67L284.71,189.66L285.03,189.66L285.36,189.65L285.69,189.64L286.02,189.64L286.34,189.63L286.67,189.63L287.00,189.62L287.33,189.62L287.65,189.61L287.98,189.61L288.31,189.60L288.64,189.60L288.96,189.60L289.29,189.59L289.62,189.59L289.95,189.59L290.27,189.58L290.60,189.58L290.93,189.58L291.26,189.58L291.58,189.57L291.91,189.57L292.24,189.57L292.57,189.57L292.89,189.57L293.22,189.57L293.55,189.56L293.88,189.56L294.21,189.56L294.53,189.56L294.86,189.56L295.19,189.56L295.52,189.56L295.84,189.56L296.17,189.56L296.50,189.56L296.83,189.56L297.15,189.56L297.48,189.56L297.81,189.56L298.14,189.56L298.46,189.56L298.79,189.56L299.12,189.56L299.45,189.56L299.77,189.56L300.10,189.56L300.43,189.56L300.76,189.56L301.08,189.56L301.41,189.56L301.74,189.56L302.07,189.56L302.39,189.56L302.72,189.56L303.05,189.55L303.38,189.55L303.70,189.55L304.03,189.55L304.36,189.55L304.69,189.55L305.01,189.55L305.34,189.55L305.67,189.55L306.00,189.55L306.32,189.55L306.65,189.55L306.98,189.55L307.31,189.54L307.64,189.54L307.96,189.54L308.29,189.54L308.62,189.54L308.95,189.53L309.27,189.53L309.60,189.53L309.93,189.53L310.26,189.52L310.58,189.52L310.91,189.52L311.24,189.51L311.57,189.51L311.89,189.50L312.22,189.50L312.55,189.50L312.88,189.49L313.20,189.49L313.53,189.48L313.86,189.47L314.19,189.47L314.51,189.46L314.84,189.46L315.17,189.45L315.50,189.44L315.82,189.44L316.15,189.43L316.48,189.42L316.81,189.41L317.13,189.40L317.46,189.39L317.79,189.38L318.12,189.38L318.44,189.37L318.77,189.36L319.10,189.34L319.43,189.33L319.76,189.32L320.08,189.31L320.41,189.30L320.74,189.29L321.07,189.27L321.39,189.26L321.72,189.25L322.05,189.23L322.38,189.22L322.70,189.20L323.03,189.19L323.36,189.17L323.69,189.15L324.01,189.14L324.34,189.12L324.67,189.10L325.00,189.08L325.32,189.06L325.65,189.04L325.98,189.02L326.31,189.00L326.63,188.98L326.96,188.96L327.29,188.94L327.62,188.92L327.94,188.89L328.27,188.87L328.60,188.85L328.93,188.82L329.25,188.80L329.58,188.77L329.91,188.75L330.24,188.72L330.56,188.69L330.89,188.66L331.22,188.63L331.55,188.61L331.88,188.58L332.20,188.55L332.53,188.51L332.86,188.48L333.19,188.45L333.51,188.42L333.84,188.38L334.17,188.35L334.50,188.31L334.82,188.28L335.15,188.24L335.48,188.21L335.81,188.17L336.13,188.13L336.46,188.09L336.79,188.05L337.12,188.01L337.44,187.97L337.77,187.93L338.10,187.89L338.43,187.84L338.75,187.80L339.08,187.75L339.41,187.71L339.74,187.66L340.06,187.62L340.39,187.57L340.72,187.52L341.05,187.47L341.37,187.42L341.70,187.37L342.03,187.32L342.36,187.26L342.68,187.21L343.01,187.16L343.34,187.10L343.67,187.05L344.00,186.99L344.32,186.93L344.65,186.88L344.98,186.82L345.31,186.76L345.63,186.70L345.96,186.63L346.29,186.57L346.62,186.51L346.94,186.44L347.27,186.38L347.60,186.31L347.93,186.25L348.25,186.18L348.58,186.11L348.91,186.04L349.24,185.97L349.56,185.90L349.89,185.83L350.22,185.75L350.55,185.68L350.87,185.61L351.20,185.53L351.53,185.45L351.86,185.37L352.18,185.30L352.51,185.22L352.84,185.14L353.17,185.05L353.49,184.97L353.82,184.89L354.15,184.80L354.48,184.72L354.80,184.63L355.13,184.54L355.46,184.45L355.79,184.37L356.12,184.27L356.44,184.18L356.77,184.09L357.10,184.00L357.43,183.90L357.75,183.81L358.08,183.71L358.41,183.61L358.74,183.51L359.06,183.41L359.39,183.31L359.72,183.21L360.05,183.11L360.37,183.00L360.70,182.90L361.03,182.79L361.36,182.68L361.68,182.58L362.01,182.47L362.34,182.36L362.67,182.24L362.99,182.13L363.32,182.02L363.65,181.90L363.98,181.79L364.30,181.67L364.63,181.55L364.96,181.43L365.29,181.31L365.61,181.19L365.94,181.06L366.27,180.94L366.60,180.82L366.92,180.69L367.25,180.56L367.58,180.43L367.91,180.30L368.24,180.17L368.56,180.04L368.89,179.91L369.22,179.77L369.55,179.64L369.87,179.50L370.20,179.36L370.53,179.22L370.86,179.08L371.18,178.94L371.51,178.80L371.84,178.65L372.17,178.51L372.49,178.36L372.82,178.21L373.15,178.06L373.48,177.91L373.80,177.76L374.13,177.61L374.46,177.46L374.79,177.30L375.11,177.15L375.44,176.99L375.77,176.83L376.10,176.67L376.42,176.51L376.75,176.35L377.08,176.18L377.41,176.02L377.73,175.85L378.06,175.68L378.39,175.51L378.72,175.34L379.04,175.17L379.37,175.00L379.70,174.83L380.03,174.65L380.36,174.48L380.68,174.30L381.01,174.12L381.34,173.94L381.67,173.76L381.99,173.58L382.32,173.39L382.65,173.21L382.98,173.02L383.30,172.83L383.63,172.64L383.96,172.45L384.29,172.26L384.61,172.07L384.94,171.87L385.27,171.68L385.60,171.48L385.92,171.28L386.25,171.08L386.58,170.88L386.91,170.68L387.23,170.48L387.56,170.27L387.89,170.07L388.22,169.86L388.54,169.65L388.87,169.44L389.20,169.23L389.53,169.02L389.85,168.80L390.18,168.59L390.51,168.37L390.84,168.15L391.16,167.93L391.49,167.71L391.82,167.49L392.15,167.27L392.48,167.04L392.80,166.82L393.13,166.59L393.46,166.36L393.79,166.13L394.11,165.90L394.44,165.67L394.77,165.43L395.10,165.20L395.42,164.96L395.75,164.72L396.08,164.48L396.41,164.24L396.73,164.00L397.06,163.76L397.39,163.51L397.72,163.27L398.04,163.02L398.37,162.77L398.70,162.52L399.03,162.27L399.35,162.02L399.68,161.76L400.01,161.51L400.34,161.25L400.66,160.99L400.99,160.73L401.32,160.47L401.65,160.21L401.97,159.94L402.30,159.68L402.63,159.41L402.96,159.15L403.28,158.88L403.61,158.61L403.94,158.33L404.27,158.06L404.59,157.79L404.92,157.51L405.25,157.23L405.58,156.96L405.91,156.68L406.23,156.40L406.56,156.11L406.89,155.83L407.22,155.54L407.54,155.26L407.87,154.97L408.20,154.68L408.53,154.39L408.85,154.10L409.18,153.81L409.51,153.51L409.84,153.21L410.16,152.92L410.49,152.62L410.82,152.32L411.15,152.02L411.47,151.72L411.80,151.41L412.13,151.11L412.46,150.80L412.78,150.49L413.11,150.18L413.44,149.87L413.77,149.56L414.09,149.25L414.42,148.93L414.75,148.62L415.08,148.30L415.40,147.98L415.73,147.66L416.06,147.34L416.39,147.02L416.71,146.69L417.04,146.37L417.37,146.04L417.70,145.71L418.03,145.38L418.35,145.05L418.68,144.72L419.01,144.39L419.34,144.05L419.66,143.72L419.99,143.38L420.32,143.04L420.65,142.70L420.97,142.36L421.30,142.02L421.63,141.67L421.96,141.33L422.28,140.98L422.61,140.63L422.94,140.28L423.27,139.93L423.59,139.58L423.92,139.23L424.25,138.88L424.58,138.52L424.90,138.16L425.23,137.81L425.56,137.45L425.89,137.08L426.21,136.72L426.54,136.36L426.87,135.99L427.20,135.63L427.52,135.26L427.85,134.89L428.18,134.52L428.51,134.15L428.83,133.78L429.16,133.41L429.49,133.03L429.82,132.66L430.15,132.28L430.47,131.90L430.80,131.52L431.13,131.14L431.46,130.76L431.78,130.37L432.11,129.99L432.44,129.60L432.77,129.21L433.09,128.82L433.42,128.43L433.75,128.04L434.08,127.65L434.40,127.26L434.73,126.86L435.06,126.46L435.39,126.07L435.71,125.67L436.04,125.27L436.37,124.87L436.70,124.46L437.02,124.06L437.35,123.65L437.68,123.25L438.01,122.84L438.33,122.43L438.66,122.02L438.99,121.61L439.32,121.20L439.64,120.78L439.97,120.37L440.30,119.95L440.63,119.53L440.95,119.12L441.28,118.70L441.61,118.27L441.94,117.85L442.27,117.43L442.59,117.00L442.92,116.58L443.25,116.15L443.58,115.72L443.90,115.29L444.23,114.86L444.56,114.43L444.89,114.00L445.21,113.56L445.54,113.13L445.87,112.69L446.20,112.25L446.52,111.81L446.85,111.37L447.18,110.93L447.51,110.49L447.83,110.04L448.16,109.60L448.49,109.15L448.82,108.71L449.14,108.26L449.47,107.81L449.80,107.36L450.13,106.90L450.45,106.45L450.78,106.00L451.11,105.54L451.44,105.08L451.76,104.63L452.09,104.17L452.42,103.71L452.75,103.25L453.07,102.78L453.40,102.32L453.73,101.86L454.06,101.39L454.39,100.92L454.71,100.45L455.04,99.98L455.37,99.51L455.70,99.04L456.02,98.57L456.35,98.10L456.68,97.62L457.01,97.14L457.33,96.67L457.66,96.19L457.99,95.71L458.32,95.23L458.64,94.75L458.97,94.26L459.30,93.78L459.63,93.29L459.95,92.81L460.28,92.32L460.61,91.83L460.94,91.34L461.26,90.85L461.59,90.36L461.92,89.87L462.25,89.37L462.57,88.88L462.90,88.38L463.23,87.89L463.56,87.39L463.88,86.89L464.21,86.39L464.54,85.89L464.87,85.38L465.19,84.88L465.52,84.38L465.85,83.87L466.18,83.36L466.51,82.85L466.83,82.35L467.16,81.84L467.49,81.32L467.82,80.81L468.14,80.30L468.47,79.78L468.80,79.27L469.13,78.75L469.45,78.23L469.78,77.72L470.11,77.20L470.44,76.68L470.76,76.15L471.09,75.63L471.42,75.11L471.75,74.58L472.07,74.06L472.40,73.53L472.73,73.00L473.06,72.47L473.38,71.94L473.71,71.41L474.04,70.88L474.37,70.35L474.69,69.81L475.02,69.28L475.35,68.74L475.68,68.20L476.00,67.67L476.33,67.13L476.66,66.59L476.99,66.05L477.31,65.50L477.64,64.96L477.97,64.42L478.30,63.87L478.63,63.32L478.95,62.78L479.28,62.23L479.61,61.68L479.94,61.13L480.26,60.58L480.59,60.03L480.92,59.47L481.25,58.92L481.57,58.36L481.90,57.81L482.23,57.25L482.56,56.69L482.88,56.13L483.21,55.57L483.54,55.01L483.87,54.45L484.19,53.89L484.52,53.32L484.85,52.76L485.18,52.19L485.50,51.63L485.83,51.06L486.16,50.49L486.49,49.92L486.81,49.35L487.14,48.78L487.47,48.21" fill="none" stroke="#1e88e5" stroke-width="2.4"/>
  <path d="M158.92,360.19L159.25,374.21L159.58,380.07L159.90,384.55L160.23,388.32L160.56,391.62L160.89,394.60L161.21,397.33L161.54,399.86L161.87,402.23L162.20,404.46L162.52,406.58L162.85,408.59L163.18,410.52L163.51,412.36L163.83,414.14L164.16,415.85L164.49,417.50L164.82,419.10L165.14,420.64L165.47,422.15L165.80,423.61L166.13,425.03L166.45,426.41L166.78,427.76L167.11,429.07L167.44,430.36L167.76,431.61L168.09,432.84L168.42,434.04L168.75,435.22L169.07,436.37L169.40,437.50L169.73,438.61L170.06,439.70L170.38,440.76L170.71,441.81L171.04,442.84L171.37,443.85L171.70,444.85L172.02,445.82L172.35,446.79L172.68,447.73L173.01,448.67L173.33,449.58L173.66,450.49L173.99,451.38L174.32,452.25L174.64,453.12L174.97,453.97L175.30,454.81L175.63,455.64L175.95,456.45L176.28,457.26L176.61,458.05L176.94,458.84L177.26,459.61L177.59,460.38L177.92,461.13L178.25,461.87L178.57,462.61L178.90,463.33L179.23,464.05L179.56,464.76L179.88,465.46L180.21,466.15L180.54,466.83L180.87,467.51L181.19,468.18L181.52,468.84L181.85,469.49L182.18,470.13L182.50,470.77L182.83,471.40L183.16,472.02L183.49,472.64L183.82,473.25L184.14,473.85L184.47,474.45L184.80,475.04L185.13,475.62L185.45,476.20L185.78,476.77L186.11,477.33L186.44,477.89L186.76,478.44L187.09,478.99L187.42,479.53L187.75,480.07L188.07,480.60L188.40,481.13L188.73,481.65L189.06,482.16L189.38,482.67L189.71,483.18L190.04,483.67L190.37,484.17L190.69,484.66L191.02,485.14L191.35,485.62L191.68,486.10L192.00,486.57L192.33,487.04L192.66,487.50L192.99,487.95L193.31,488.41L193.64,488.86L193.97,489.30L194.30,489.74L194.62,490.18L194.95,490.61L195.28,491.03L195.61,491.46L195.94,491.88L196.26,492.29L196.59,492.70L196.92,493.11L197.25,493.52L197.57,493.92L197.90,494.31L198.23,494.71L198.56,495.09L198.88,495.48L199.21,495.86L199.54,496.24L199.87,496.61L200.19,496.99L200.52,497.35L200.85,497.72L201.18,498.08L201.50,498.44L201.83,498.79L202.16,499.14L202.49,499.49L202.81,499.84L203.14,500.18L203.47,500.52L203.80,500.85L204.12,501.19L204.45,501.51L204.78,501.84L205.11,502.16L205.43,502.49L205.76,502.80L206.09,503.12L206.42,503.43L206.74,503.74L207.07,504.04L207.40,504.35L207.73,504.65L208.05,504.95L208.38,505.24L208.71,505.53L209.04,505.82L209.37,506.11L209.69,506.40L210.02,506.68L210.35,506.96L210.68,507.23L211.00,507.51L211.33,507.78L211.66,508.05L211.99,508.32L212.31,508.58L212.64,508.84L212.97,509.10L213.30,509.36L213.62,509.61L213.95,509.86L214.28,510.11L214.61,510.36L214.93,510.61L215.26,510.85L215.59,511.09L215.92,511.33L216.24,511.57L216.57,511.80L216.90,512.03L217.23,512.26L217.55,512.49L217.88,512.72L218.21,512.94L218.54,513.16L218.86,513.38L219.19,513.60L219.52,513.81L219.85,514.03L220.17,514.24L220.50,514.45L220.83,514.65L221.16,514.86L221.49,515.06L221.81,515.26L222.14,515.46L222.47,515.66L222.80,515.85L223.12,516.05L223.45,516.24L223.78,516.43L224.11,516.62L224.43,516.80L224.76,516.99L225.09,517.17L225.42,517.35L225.74,517.53L226.07,517.71L226.40,517.88L226.73,518.05L227.05,518.23L227.38,518.40L227.71,518.56L228.04,518.73L228.36,518.90L228.69,519.06L229.02,519.22L229.35,519.38L229.67,519.54L230.00,519.70L230.33,519.85L230.66,520.00L230.98,520.16L231.31,520.31L231.64,520.46L231.97,520.60L232.29,520.75L232.62,520.89L232.95,521.04L233.28,521.18L233.61,521.32L233.93,521.46L234.26,521.59L234.59,521.73L234.92,521.86L235.24,521.99L235.57,522.12L235.90,522.25L236.23,522.38L236.55,522.51L236.88,522.63L237.21,522.76L237.54,522.88L237.86,523.00L238.19,523.12L238.52,523.24L238.85,523.36L239.17,523.47L239.50,523.59L239.83,523.70L240.16,523.81L240.48,523.92L240.81,524.03L241.14,524.14L241.47,524.25L241.79,524.35L242.12,524.45L242.45,524.56L242.78,524.66L243.10,524.76L243.43,524.86L243.76,524.96L244.09,525.05L244.41,525.15L244.74,525.24L245.07,525.34L245.40,525.43L245.73,525.52L246.05,525.61L246.38,525.70L246.71,525.79L247.04,525.87L247.36,525.96L247.69,526.04L248.02,526.13L248.35,526.21L248.67,526.29L249.00,526.37L249.33,526.45L249.66,526.53L249.98,526.60L250.31,526.68L250.64,526.75L250.97,526.83L251.29,526.90L251.62,526.97L251.95,527.04L252.28,527.11L252.60,527.18L252.93,527.25L253.26,527.32L253.59,527.38L253.91,527.45L254.24,527.51L254.57,527.57L254.90,527.64L255.22,527.70L255.55,527.76L255.88,527.82L256.21,527.88L256.53,527.93L256.86,527.99L257.19,528.05L257.52,528.10L257.85,528.16L258.17,528.21L258.50,528.26L258.83,528.31L259.16,528.36L259.48,528.41L259.81,528.46L260.14,528.51L260.47,528.56L260.79,528.61L261.12,528.65L261.45,528.70L261.78,528.74L262.10,528.78L262.43,528.83L262.76,528.87L263.09,528.91L263.41,528.95L263.74,528.99L264.07,529.03L264.40,529.07L264.72,529.11L265.05,529.14L265.38,529.18L265.71,529.22L266.03,529.25L266.36,529.29L266.69,529.32L267.02,529.35L267.34,529.38L267.67,529.42L268.00,529.45L268.33,529.48L268.65,529.51L268.98,529.54L269.31,529.56L269.64,529.59L269.97,529.62L270.29,529.65L270.62,529.67L270.95,529.70L271.28,529.72L271.60,529.75L271.93,529.77L272.26,529.80L272.59,529.82L272.91,529.84L273.24,529.86L273.57,529.88L273.90,529.90L274.22,529.92L274.55,529.94L274.88,529.96L275.21,529.98L275.53,530.00L275.86,530.02L276.19,530.03L276.52,530.05L276.84,530.07L277.17,530.08L277.50,530.10L277.83,530.11L278.15,530.13L278.48,530.14L278.81,530.16L279.14,530.17L279.46,530.18L279.79,530.19L280.12,530.21L280.45,530.22L280.77,530.23L281.10,530.24L281.43,530.25L281.76,530.26L282.09,530.27L282.41,530.28L282.74,530.29L283.07,530.30L283.40,530.31L283.72,530.31L284.05,530.32L284.38,530.33L284.71,530.34L285.03,530.34L285.36,530.35L285.69,530.36L286.02,530.36L286.34,530.37L286.67,530.37L287.00,530.38L287.33,530.38L287.65,530.39L287.98,530.39L288.31,530.40L288.64,530.40L288.96,530.40L289.29,530.41L289.62,530.41L289.95,530.41L290.27,530.42L290.60,530.42L290.93,530.42L291.26,530.42L291.58,530.43L291.91,530.43L292.24,530.43L292.57,530.43L292.89,530.43L293.22,530.43L293.55,530.44L293.88,530.44L294.21,530.44L294.53,530.44L294.86,530.44L295.19,530.44L295.52,530.44L295.84,530.44L296.17,530.44L296.50,530.44L296.83,530.44L297.15,530.44L297.48,530.44L297.81,530.44L298.14,530.44L298.46,530.44L298.79,530.44L299.12,530.44L299.45,530.44L299.77,530.44L300.10,530.44L300.43,530.44L300.76,530.44L301.08,530.44L301.41,530.44L301.74,530.44L302.07,530.44L302.39,530.44L302.72,530.44L303.05,530.45L303.38,530.45L303.70,530.45L304.03,530.45L304.36,530.45L304.69,530.45L305.01,530.45L305.34,530.45L305.67,530.45L306.00,530.45L306.32,530.45L306.65,530.45L306.98,530.45L307.31,530.46L307.64,530.46L307.96,530.46L308.29,530.46L308.62,530.46L308.95,530.47L309.27,530.47L309.60,530.47L309.93,530.47L310.26,530.48L310.58,530.48L310.91,530.48L311.24,530.49L311.57,530.49L311.89,530.50L312.22,530.50L312.55,530.50L312.88,530.51L313.20,530.51L313.53,530.52L313.86,530.53L314.19,530.53L314.51,530.54L314.84,530.54L315.17,530.55L315.50,530.56L315.82,530.56L316.15,530.57L316.48,530.58L316.81,530.59L317.13,530.60L317.46,530.61L317.79,530.62L318.12,530.62L318.44,530.63L318.77,530.64L319.10,530.66L319.43,530.67L319.76,530.68L320.08,530.69L320.41,530.70L320.74,530.71L321.07,530.73L321.39,530.74L321.72,530.75L322.05,530.77L322.38,530.78L322.70,530.80L323.03,530.81L323.36,530.83L323.69,530.85L324.01,530.86L324.34,530.88L324.67,530.90L325.00,530.92L325.32,530.94L325.65,530.96L325.98,530.98L326.31,531.00L326.63,531.02L326.96,531.04L327.29,531.06L327.62,531.08L327.94,531.11L328.27,531.13L328.60,531.15L328.93,531.18L329.25,531.20L329.58,531.23L329.91,531.25L330.24,531.28L330.56,531.31L330.89,531.34L331.22,531.37L331.55,531.39L331.88,531.42L332.20,531.45L332.53,531.49L332.86,531.52L333.19,531.55L333.51,531.58L333.84,531.62L334.17,531.65L334.50,531.69L334.82,531.72L335.15,531.76L335.48,531.79L335.81,531.83L336.13,531.87L336.46,531.91L336.79,531.95L337.12,531.99L337.44,532.03L337.77,532.07L338.10,532.11L338.43,532.16L338.75,532.20L339.08,532.25L339.41,532.29L339.74,532.34L340.06,532.38L340.39,532.43L340.72,532.48L341.05,532.53L341.37,532.58L341.70,532.63L342.03,532.68L342.36,532.74L342.68,532.79L343.01,532.84L343.34,532.90L343.67,532.95L344.00,533.01L344.32,533.07L344.65,533.12L344.98,533.18L345.31,533.24L345.63,533.30L345.96,533.37L346.29,533.43L346.62,533.49L346.94,533.56L347.27,533.62L347.60,533.69L347.93,533.75L348.25,533.82L348.58,533.89L348.91,533.96L349.24,534.03L349.56,534.10L349.89,534.17L350.22,534.25L350.55,534.32L350.87,534.39L351.20,534.47L351.53,534.55L351.86,534.63L352.18,534.70L352.51,534.78L352.84,534.86L353.17,534.95L353.49,535.03L353.82,535.11L354.15,535.20L354.48,535.28L354.80,535.37L355.13,535.46L355.46,535.55L355.79,535.63L356.12,535.73L356.44,535.82L356.77,535.91L357.10,536.00L357.43,536.10L357.75,536.19L358.08,536.29L358.41,536.39L358.74,536.49L359.06,536.59L359.39,536.69L359.72,536.79L360.05,536.89L360.37,537.00L360.70,537.10L361.03,537.21L361.36,537.32L361.68,537.42L362.01,537.53L362.34,537.64L362.67,537.76L362.99,537.87L363.32,537.98L363.65,538.10L363.98,538.21L364.30,538.33L364.63,538.45L364.96,538.57L365.29,538.69L365.61,538.81L365.94,538.94L366.27,539.06L366.60,539.18L366.92,539.31L367.25,539.44L367.58,539.57L367.91,539.70L368.24,539.83L368.56,539.96L368.89,540.09L369.22,540.23L369.55,540.36L369.87,540.50L370.20,540.64L370.53,540.78L370.86,540.92L371.18,541.06L371.51,541.20L371.84,541.35L372.17,541.49L372.49,541.64L372.82,541.79L373.15,541.94L373.48,542.09L373.80,542.24L374.13,542.39L374.46,542.54L374.79,542.70L375.11,542.85L375.44,543.01L375.77,543.17L376.10,543.33L376.42,543.49L376.75,543.65L377.08,543.82L377.41,543.98L377.73,544.15L378.06,544.32L378.39,544.49L378.72,544.66L379.04,544.83L379.37,545.00L379.70,545.17L380.03,545.35L380.36,545.52L380.68,545.70L381.01,545.88L381.34,546.06L381.67,546.24L381.99,546.42L382.32,546.61L382.65,546.79L382.98,546.98L383.30,547.17L383.63,547.36L383.96,547.55L384.29,547.74L384.61,547.93L384.94,548.13L385.27,548.32L385.60,548.52L385.92,548.72L386.25,548.92L386.58,549.12L386.91,549.32L387.23,549.52L387.56,549.73L387.89,549.93L388.22,550.14L388.54,550.35L388.87,550.56L389.20,550.77L389.53,550.98L389.85,551.20L390.18,551.41L390.51,551.63L390.84,551.85L391.16,552.07L391.49,552.29L391.82,552.51L392.15,552.73L392.48,552.96L392.80,553.18L393.13,553.41L393.46,553.64L393.79,553.87L394.11,554.10L394.44,554.33L394.77,554.57L395.10,554.80L395.42,555.04L395.75,555.28L396.08,555.52L396.41,555.76L396.73,556.00L397.06,556.24L397.39,556.49L397.72,556.73L398.04,556.98L398.37,557.23L398.70,557.48L399.03,557.73L399.35,557.98L399.68,558.24L400.01,558.49L400.34,558.75L400.66,559.01L400.99,559.27L401.32,559.53L401.65,559.79L401.97,560.06L402.30,560.32L402.63,560.59L402.96,560.85L403.28,561.12L403.61,561.39L403.94,561.67L404.27,561.94L404.59,562.21L404.92,562.49L405.25,562.77L405.58,563.04L405.91,563.32L406.23,563.60L406.56,563.89L406.89,564.17L407.22,564.46L407.54,564.74L407.87,565.03L408.20,565.32L408.53,565.61L408.85,565.90L409.18,566.19L409.51,566.49L409.84,566.79L410.16,567.08L410.49,567.38L410.82,567.68L411.15,567.98L411.47,568.28L411.80,568.59L412.13,568.89L412.46,569.20L412.78,569.51L413.11,569.82L413.44,570.13L413.77,570.44L414.09,570.75L414.42,571.07L414.75,571.38L415.08,571.70L415.40,572.02L415.73,572.34L416.06,572.66L416.39,572.98L416.71,573.31L417.04,573.63L417.37,573.96L417.70,574.29L418.03,574.62L418.35,574.95L418.68,575.28L419.01,575.61L419.34,575.95L419.66,576.28L419.99,576.62L420.32,576.96L420.65,577.30L420.97,577.64L421.30,577.98L421.63,578.33L421.96,578.67L422.28,579.02L422.61,579.37L422.94,579.72L423.27,580.07L423.59,580.42L423.92,580.77L424.25,581.12L424.58,581.48L424.90,581.84L425.23,582.19L425.56,582.55L425.89,582.92L426.21,583.28L426.54,583.64L426.87,584.01L427.20,584.37L427.52,584.74L427.85,585.11L428.18,585.48L428.51,585.85L428.83,586.22L429.16,586.59L429.49,586.97L429.82,587.34L430.15,587.72L430.47,588.10L430.80,588.48L431.13,588.86L431.46,589.24L431.78,589.63L432.11,590.01L432.44,590.40L432.77,590.79L433.09,591.18L433.42,591.57L433.75,591.96L434.08,592.35L434.40,592.74L434.73,593.14L435.06,593.54L435.39,593.93L435.71,594.33L436.04,594.73L436.37,595.13L436.70,595.54L437.02,595.94L437.35,596.35L437.68,596.75L438.01,597.16L438.33,597.57L438.66,597.98L438.99,598.39L439.32,598.80L439.64,599.22L439.97,599.63L440.30,600.05L440.63,600.47L440.95,600.88L441.28,601.30L441.61,601.73L441.94,602.15L442.27,602.57L442.59,603.00L442.92,603.42L443.25,603.85L443.58,604.28L443.90,604.71L444.23,605.14L444.56,605.57L444.89,606.00L445.21,606.44L445.54,606.87L445.87,607.31L446.20,607.75L446.52,608.19L446.85,608.63L447.18,609.07L447.51,609.51L447.83,609.96L448.16,610.40L448.49,610.85L448.82,611.29L449.14,611.74L449.47,612.19L449.80,612.64L450.13,613.10L450.45,613.55L450.78,614.00L451.11,614.46L451.44,614.92L451.76,615.37L452.09,615.83L452.42,616.29L452.75,616.75L453.07,617.22L453.40,617.68L453.73,618.14L454.06,618.61L454.39,619.08L454.71,619.55L455.04,620.02L455.37,620.49L455.70,620.96L456.02,621.43L456.35,621.90L456.68,622.38L457.01,622.86L457.33,623.33L457.66,623.81L457.99,624.29L458.32,624.77L458.64,625.25L458.97,625.74L459.30,626.22L459.63,626.71L459.95,627.19L460.28,627.68L460.61,628.17L460.94,628.66L461.26,629.15L461.59,629.64L461.92,630.13L462.25,630.63L462.57,631.12L462.90,631.62L463.23,632.11L463.56,632.61L463.88,633.11L464.21,633.61L464.54,634.11L464.87,634.62L465.19,635.12L465.52,635.62L465.85,636.13L466.18,636.64L466.51,637.15L466.83,637.65L467.16,638.16L467.49,638.68L467.82,639.19L468.14,639.70L468.47,640.22L468.80,640.73L469.13,641.25L469.45,641.77L469.78,642.28L470.11,642.80L470.44,643.32L470.76,643.85L471.09,644.37L471.42,644.89L471.75,645.42L472.07,645.94L472.40,646.47L472.73,647.00L473.06,647.53L473.38,648.06L473.71,648.59L474.04,649.12L474.37,649.65L474.69,650.19L475.02,650.72L475.35,651.26L475.68,651.80L476.00,652.33L476.33,652.87L476.66,653.41L476.99,653.95L477.31,654.50L477.64,655.04L477.97,655.58L478.30,656.13L478.63,656.68L478.95,657.22L479.28,657.77L479.61,658.32L479.94,658.87L480.26,659.42L480.59,659.97L480.92,660.53L481.25,661.08L481.57,661.64L481.90,662.19L482.23,662.75L482.56,663.31L482.88,663.87L483.21,664.43L483.54,664.99L483.87,665.55L484.19,666.11L484.52,666.68L484.85,667.24L485.18,667.81L485.50,668.37L485.83,668.94L486.16,669.51L486.49,670.08L486.81,670.65L487.14,671.22L487.47,671.79" fill="none" stroke="#1e88e5" stroke-width="2.4"/>
  <text x="288.0" y="100.0" font-family="DejaVu Serif, Times New Roman, serif" font-size="15" font-style="italic" fill="#1e88e5">E: y&#x00B2; = x&#x00B3; + 13</text>

  <!-- Step 1: full tangent line through G (orange) -->
  <line x1="551.5" y1="68.6" x2="49.0" y2="380.2" stroke="#ef6c00" stroke-width="2.4"/>
  <line x1="163.2" y1="309.4" x2="163.2" y2="410.6" stroke="#ef6c00" stroke-width="2.2"/>
  <circle cx="163.2" cy="309.4" r="4" fill="#ffffff" stroke="#ef6c00" stroke-width="2"/>

  <!-- Step 2: full chord through 2G and G (purple) -->
  <line x1="49.0" y1="532.9" x2="501.1" y2="48.3" stroke="#7b1fa2" stroke-width="2.4" stroke-dasharray="7 4"/>
  <line x1="460.9" y1="91.4" x2="460.9" y2="628.6" stroke="#7b1fa2" stroke-width="2.2"/>
  <circle cx="460.9" cy="91.4" r="4" fill="#ffffff" stroke="#7b1fa2" stroke-width="2"/>

  <circle cx="387.0" cy="170.6" r="6" fill="#1565c0" stroke="#0d47a1" stroke-width="1.5"/>
  <text x="397.0" y="162.6" font-family="DejaVu Serif, Times New Roman, serif" font-size="20" font-style="italic" fill="#0d47a1">G</text>

  <circle cx="163.2" cy="410.6" r="6" fill="#ef6c00" stroke="#e65100" stroke-width="1.5"/>
  <text x="155.2" y="398.6" text-anchor="end" font-family="DejaVu Serif, Times New Roman, serif" font-size="20" font-style="italic" fill="#e65100">2G</text>

  <circle cx="460.9" cy="628.6" r="6" fill="#7b1fa2" stroke="#4a148c" stroke-width="1.5"/>
  <text x="470.9" y="634.6" font-family="DejaVu Serif, Times New Roman, serif" font-size="20" font-style="italic" fill="#6a1b9a">3G</text>

  <rect x="620" y="40" width="340" height="640" fill="#fafafa" stroke="#90a4ae" stroke-width="1.4" rx="8"/>
  <text x="790" y="72" text-anchor="middle" font-family="Segoe UI, Helvetica, Arial, sans-serif" font-size="15" font-weight="700" fill="#263238">How to get kG</text>

  <rect x="636" y="95" width="308" height="145" fill="#fff3e0" stroke="#ef6c00" stroke-width="1.5" rx="6"/>
  <text x="790" y="122" text-anchor="middle" font-family="Segoe UI, Helvetica, Arial, sans-serif" font-size="13" font-weight="700" fill="#e65100">Step 1:  2G = G + G</text>
  <text x="648" y="150" font-family="Segoe UI, Helvetica, Arial, sans-serif" font-size="12" fill="#5d4037">1. Draw the tangent at G (full line)</text>
  <text x="648" y="172" font-family="Segoe UI, Helvetica, Arial, sans-serif" font-size="12" fill="#5d4037">2. It hits E again at a third point</text>
  <text x="648" y="194" font-family="Segoe UI, Helvetica, Arial, sans-serif" font-size="12" fill="#5d4037">3. Flip that point over the x-axis</text>
  <text x="790" y="222" text-anchor="middle" font-family="Consolas, monospace" font-size="13" font-weight="700" fill="#e65100">result = 2G</text>

  <rect x="636" y="260" width="308" height="145" fill="#f3e5f5" stroke="#7b1fa2" stroke-width="1.5" rx="6"/>
  <text x="790" y="287" text-anchor="middle" font-family="Segoe UI, Helvetica, Arial, sans-serif" font-size="13" font-weight="700" fill="#6a1b9a">Step 2:  3G = 2G + G</text>
  <text x="648" y="315" font-family="Segoe UI, Helvetica, Arial, sans-serif" font-size="12" fill="#4a148c">1. Draw the chord through 2G and G</text>
  <text x="648" y="337" font-family="Segoe UI, Helvetica, Arial, sans-serif" font-size="12" fill="#4a148c">2. It hits E again at a third point</text>
  <text x="648" y="359" font-family="Segoe UI, Helvetica, Arial, sans-serif" font-size="12" fill="#4a148c">3. Flip that point over the x-axis</text>
  <text x="790" y="387" text-anchor="middle" font-family="Consolas, monospace" font-size="13" font-weight="700" fill="#6a1b9a">result = 3G</text>

  <rect x="636" y="425" width="308" height="100" fill="#eceff1" stroke="#607d8b" stroke-width="1.3" rx="6"/>
  <text x="790" y="455" text-anchor="middle" font-family="Segoe UI, Helvetica, Arial, sans-serif" font-size="12" fill="#37474f">Continue the same way:</text>
  <text x="790" y="480" text-anchor="middle" font-family="Consolas, monospace" font-size="13" fill="#263238">4G = 3G + G,  ...</text>
  <text x="790" y="505" text-anchor="middle" font-family="Consolas, monospace" font-size="13" fill="#263238">kG = (k-1)G + G</text>

  <rect x="636" y="545" width="308" height="115" fill="#e8f5e9" stroke="#2e7d32" stroke-width="1.5" rx="6"/>
  <text x="790" y="575" text-anchor="middle" font-family="Segoe UI, Helvetica, Arial, sans-serif" font-size="13" font-weight="700" fill="#2e7d32">Keys</text>
  <text x="648" y="602" font-family="Consolas, monospace" font-size="12" fill="#c62828">private  d  (e.g. d = 3)</text>
  <text x="648" y="628" font-family="Consolas, monospace" font-size="12" fill="#1b5e20">public   Q = d · G  (= 3G)</text>
  <text x="648" y="648" font-family="Segoe UI, Helvetica, Arial, sans-serif" font-size="11" fill="#558b2f">G is the public base point</text>
</svg>
